<?xml version="1.0" encoding="utf-8"?>
<!-- Generator: Adobe Illustrator 16.0.0, SVG Export Plug-In . SVG Version: 6.00 Build 0)  -->
<!DOCTYPE svg PUBLIC "-//W3C//DTD SVG 1.1//EN" "http://www.w3.org/Graphics/SVG/1.1/DTD/svg11.dtd">
<svg version="1.1" id="图层_1" xmlns="http://www.w3.org/2000/svg" xmlns:xlink="http://www.w3.org/1999/xlink" x="0px" y="0px"
	 width="35px" height="35px" viewBox="0 0 35 35" enable-background="new 0 0 35 35" xml:space="preserve">
<title>add</title>
<desc>Created with Sketch.</desc>
<g id="Page-1">
	<g id="Artboard-5" transform="translate(-35.000000, -25.000000)">
		
			<linearGradient id="Combined-Shape_1_" gradientUnits="userSpaceOnUse" x1="-429.5874" y1="517.8818" x2="-428.5874" y2="516.8818" gradientTransform="matrix(16 0 0 -16 6917.3984 8320.0938)">
			<stop  offset="0" style="stop-color:#8876F6"/>
			<stop  offset="0.3284" style="stop-color:#7D78F8"/>
			<stop  offset="1" style="stop-color:#3280FF"/>
		</linearGradient>
		<path id="Combined-Shape" fill="url(#Combined-Shape_1_)" d="M58.672,35.333h-0.004C58.668,35.332,58.67,35.333,58.672,35.333z
			 M57.334,35.333L56.011,34h2.661C59.405,34,60,34.593,60,35.338v2.68l-1.334-1.343v-1.337
			C58.666,35.335,57.334,35.333,57.334,35.333z M58.666,47.344L60,46.006v2.664c0,0.734-0.588,1.33-1.325,1.33h-2.653l1.328-1.334
			h1.316V47.344z M46.672,48.666L48.011,50h-2.676C44.598,50,44,49.41,44,48.67v-2.664l1.333,1.328v1.333
			C45.334,48.667,46.672,48.666,46.672,48.666z M51.333,41.333H48v1.333h3.333V46h1.333v-3.334H56v-1.333h-3.334V38h-1.333V41.333z
			 M45.333,36.665L44,37.99v-2.662C44,34.595,44.592,34,45.336,34h2.678l-1.341,1.333h-1.336
			C45.335,35.333,45.333,36.665,45.333,36.665z"/>
	</g>
</g>
</svg>
