<?xml version="1.0" encoding="utf-8"?>
<!-- Generator: Adobe Illustrator 22.1.0, SVG Export Plug-In . SVG Version: 6.00 Build 0)  -->
<svg version="1.1" id="图层_1" xmlns="http://www.w3.org/2000/svg" xmlns:xlink="http://www.w3.org/1999/xlink" x="0px" y="0px"
	 viewBox="0 0 20 20" style="enable-background:new 0 0 20 20;" xml:space="preserve">
<style type="text/css">
	.st0{filter:url(#Adobe_OpacityMaskFilter);}
	.st1{fill:#FFFFFF;}
	.st2{mask:url(#mask-2_1_);fill:#FFFFFF;}
</style>
<title>beauty</title>
<desc>Created with Sketch.</desc>
<g id="Page-1">
	<g id="beauty">
		<g id="Rectangle">
		</g>
		<defs>
			<filter id="Adobe_OpacityMaskFilter" filterUnits="userSpaceOnUse" x="4.2" y="4" width="11.3" height="12.5">
				<feColorMatrix  type="matrix" values="1 0 0 0 0  0 1 0 0 0  0 0 1 0 0  0 0 0 1 0"/>
			</filter>
		</defs>
		<mask maskUnits="userSpaceOnUse" x="4.2" y="4" width="11.3" height="12.5" id="mask-2_1_">
			<g class="st0">
				<rect id="path-1_1_" class="st1" width="20" height="20"/>
			</g>
		</mask>
		<path id="Combined-Shape" class="st2" d="M7.5,9V7c0-0.3,0.2-0.5,0.5-0.5c0.3,0,0.5,0.2,0.5,0.5v2h0.1c0.2-0.3,0.7-1.1,1.9-2.9
			C9.9,5.4,9,5,8,5C7,5,6.1,5.4,5.5,6.1C5.6,6.3,5.7,6.4,6,6.8L7.5,9L7.5,9z M8.4,10H7.6c0,0.1,0,0.2,0,0.3c0,0.1,0,0.1,0,0.2h0.9
			c0-0.1,0-0.1,0-0.2C8.4,10.2,8.4,10.1,8.4,10z M8.5,11.5h-1c0,0.2,0,0.4-0.1,0.6c0,0.1,0,0.1,0,0.3c-0.1,1.5-0.2,2.4-0.2,2.7
			c0,0.3,0.3,0.5,0.8,0.5c0.5,0,0.7-0.2,0.7-0.5c0-0.2-0.1-1.2-0.2-2.7c0-0.1,0-0.1,0-0.2C8.5,11.9,8.5,11.7,8.5,11.5z M12,9.5V6.3
			c0-0.2,0.1-0.3,0.2-0.4l2-1.5c0.3-0.2,0.8,0,0.8,0.4v4.7c0.3,0,0.5,0.2,0.5,0.5v6c0,0.3-0.2,0.5-0.5,0.5l-3,0
			c-0.3,0-0.5-0.2-0.5-0.5v-6C11.5,9.7,11.7,9.5,12,9.5z M13,9.5l1,0V5.8l-1,0.8V9.5z M12.5,15.5l2,0v-5l-2,0V15.5z M14.2,11.5v1
			c0,0.7-1,0.7-1,0v-1C13.2,10.8,14.2,10.8,14.2,11.5z M9.4,10.3c0,0.6,0.1,1.2,0.1,1.8c0,0.1,0,0.1,0,0.2c0.1,1.6,0.2,2.5,0.2,2.8
			c0,0.8-0.8,1.5-1.7,1.5c-1,0-1.8-0.5-1.8-1.5c0-0.3,0.1-1.3,0.2-2.8c0-0.1,0-0.1,0-0.3c0-0.6,0.1-1.2,0.2-1.8c0-0.2,0-0.4,0.1-0.6
			C6.3,9.2,6.2,9,5.1,7.4L4.2,6l0.2-0.3C5.3,4.6,6.6,4,8,4c1.4,0,2.7,0.6,3.5,1.7L11.7,6l-0.2,0.3c-1.5,2.3-2,3.1-2.2,3.4
			C9.4,9.8,9.4,10,9.4,10.3z"/>
	</g>
</g>
</svg>
