<?xml version="1.0" encoding="utf-8"?>
<!-- Generator: Adobe Illustrator 22.1.0, SVG Export Plug-In . SVG Version: 6.00 Build 0)  -->
<svg version="1.1" id="图层_1" xmlns="http://www.w3.org/2000/svg" xmlns:xlink="http://www.w3.org/1999/xlink" x="0px" y="0px"
	 viewBox="0 0 200 200" style="enable-background:new 0 0 200 200;" xml:space="preserve">
<style type="text/css">
	.st0{fill:#FFFFFF;stroke:#FFFFFF;stroke-width:5;stroke-miterlimit:10;}
</style>
<path class="st0" d="M119.3,89.5c0-0.1-0.1-0.1-0.1-0.2C119.2,89.4,119.3,89.4,119.3,89.5C119.3,89.5,119.3,89.5,119.3,89.5z
	 M132.5,172.7C132.5,172.7,132.5,172.7,132.5,172.7C132.5,172.7,132.5,172.7,132.5,172.7C132.1,172.7,132.1,172.7,132.5,172.7z
	 M181.2,92.3c2-5.4,4.1-11,4.6-16.9c1.2-16.1-7-34.9-20.5-46.6c-5.1-4.4-11.8-8.2-18.3-10.2c-5.2-1.6-12.8-3-19.7-0.2
	c-0.4,0-0.7,0-1.1-0.1c-5.2-1.9-16.1,1.6-20.9,3.2l-0.7,0.2c-6.3,2-11.9,5.9-16.8,11.5c-5.2,5.9-6.6,12.4-8.1,19.2
	c-0.7,3.1-1.4,6.3-2.4,9.4c-2.9,8.6-8,10.3-16.7,12.5L57,75.2C46.1,77.9,34.8,80.7,26.1,88c-10.1,8.4-14,20-11,32.7
	c1.5,6.3,5.2,14.4,14.1,17c3,0.9,9.4,0.9,13-1.3c2.2-1.3,3.6-4.1,3.4-6.7c-0.1-1.2-0.5-2.2-1.1-2.9c-1.1-2.6-4.4-4.4-8.7-2.7
	c5.1-1.9,6.6,4.8,1.9,5.6c-3.6,0.6-7.4-6-7.8-8.8c-1.1-8,4.8-15.3,10.6-19.9c6.1-4.8,13.3-7.9,20.8-9.2c6.9-1.3,14.6-1.9,18.7-8.5
	c-3.2,8.6-12.3,9.3-19.5,11.5c-7.6,2.4-17.1,6.2-20.1,14.3c-2.8,7.4,5.5,9.1,7.9,14.7c2.8,6.3-1.6,14.6-8.5,15.1
	c4.4-0.3,8.1,0.7,11.1-3.6c3.6-5.1,0.2-8.8-1.1-14c-3.2-12.3,17.1-21.3,27.6-20.7c-5.9,0.9-16.8,6.8-19.8,12.2
	c-4,7.1,3,13.7,1.4,20.9c-2.1,9.7-11.6,8.8-19.4,9.3c-4.2,0.3-8.3-0.2-11.9,2.2c-1.2,0.8-7.6,6.8-7,8.4c0,0.1-0.1,0.2-0.1,0.2
	c9.5-16.2,28.6,1,40.3-9c6-5.1,3.7-13.2,7.8-19.5c5-7.5,13.9-10.8,22-12.3c-5.8,2.7-12.3,6-16.4,11c-4.1,5-3.4,9-4.7,15
	c-2,8.8-8.4,10.3-16.3,11.5c-6.7,1-19.6,0.5-19.9,9.7c-0.2,6.9,13.3,12.5,17.1,5.8c1.5-2.7,0.4-5.9-2.3-7.4c-3.6-2-4.2,0.9-7.1,1.1
	c7.2-0.6,2.1,8.8-1.8,3.7c-2.6-3.3,0.4-5.7,2.8-7.5c5.7-4.1,14.7-1.2,20.9-3.8c4.6-1.9,9.6-5.6,12-10c3.3-6,2.5-13.4,7.3-18.7
	c4.9-5.5,13.2-6.5,20.2-7.9c-5.7,1.3-13.9,3.3-17.8,8.1c-4,4.9-2.3,12-6.4,17c4.1-3.1,5.3-9.5,9-13.6c4.8-5.4,12.7-9.6,19.8-10.2
	c-17.5,1.6-17.6,20.2-27.3,30.2c-5.9,6-13.5,6.1-19.4,10.8c-8.5,6.8,2,8.2,0.9,14.2c-0.8,4-9.6,9-10.3,3.5c-1.6,0.9-1.9,1.9-1.5,2.8
	c0,0.7,0.3,1.4,0.8,2c1.3,1.8,4.1,3,6,3.1c3.9,0.1,8.2-1.9,10.4-5c2.5-3.5,1.5-6.8,0.5-9.9c-1.2-3.8-2.2-7.1,2.9-10.2
	c3-1.8,6.4-2.9,9.8-3.9c1.9-0.6,3.8-1.2,5.6-1.9c4.4-1.7,7.8-5.7,9.2-10.7l0.1-0.6c0.3-1.2,0.7-2.4,1.1-3.5c0.8-1.9,1.7-3.8,2.8-5.4
	c3.2-4.9,8.7-8.6,14.4-10c-9.2,5.5-18.5,19.4-17.5,30.4c0.9,10.6,21.6,17.5,22.1,5.5c-4.5,7-13.9,0-12.8-6.8c1.2-7.9,9.6-6.8,15-9.8
	c3.8-2.1,6.7-5.6,8.9-9.4c1.3-12.6-10.2-29.3-21.4-26.8c-1.6,0.3-4.8,2-8.9,1.6c-1.9-0.2-3.8-2-4-4.1c-0.2-2.8,1.6-5.1-1.2-6.6
	c-2.1-1.1-3.3-3.8,0.5-4.7c-2.2,0.3-4.1-0.8-4.3-2.4c-0.3-2.6,2.9-2.8,1.5-5.7c-1.1-2.1-4.6-1.7-4.4-4.6c0.2-2.1,2.5-4.4,3.7-5.9
	c2-2.5,3.5-5.3,4.1-8.5c0.5-2.9-0.6-5.1-0.9-7.9c-0.4-4.1,0-8,1.6-11.7c1.4-2.4,3-4.7,5-6.5c4.1-3.7,9.2-6.3,14.2-8.6
	c-5.5,3-1.7,10.5,1.1,14c3.2,4,9,5.9,11.8,10.2c1.4,2.2,2.1,5.8,1.8,9.1c-0.1,1.7-0.5,3.3-1.2,4.5c-3.7,6.6-17.3,11.8-12.9,21.4
	c0.9,2,2.8,3.6,5.1,3c1.4-0.3,3-1.5,2.8-3.2c-0.2-1.7-1.8-2.9-3.4-2c-1.4,0.8-1.2,1.8-0.5,2.7c-0.4-0.7,0.8-1.6,1.4-1.1
	c1.5,1-2.1,4.1-3,1.1c-0.4-1.4-0.1-3.2,0.5-4.5c1.1-2.3,3-4.4,5.1-5.7c4-2.6,7.5-0.5,11.6-1.2c-13.5,2.3-9.6,14.9-0.6,19.9
	c3.5,2,8,3.3,10.2,7c1.6,2.6,2.2,8-1.6,9.1c-3.5,1-6.2-3.9-2.8-5.7c-3.3,1.8-5.8,3.8-2.7,7.9c2.7,3.6,7.9,2.5,10.3-1
	c3.7-5.4-1.4-20.9,8.9-20.4c6,0.2,0.5,6.2-0.5,8.6c-4,9.4,2.7,13.9,7.6,21.5c6,9.3,4.9,18.8,0.1,26.7c0.9-1.1,1.8-2.3,2.6-3.4
	c4.5-6.1,5.3-14.1,2.1-20.7c-1-2.1-2.6-4-4.2-5.9c-2-2.3-4-4.7-4.8-7.4c-2.6-4.4,1.2-9.4,4.6-13.8c1.6-2,3-3.9,3.7-5.5
	c1.2-2.9,1.3-5.2,0.4-7.2c-1.9-4.1-8.2-5.9-14.8-7.8c-8.6-2.5-17.5-5.1-18-13c-0.3-5.1,2.4-9.2,5-13.2c2.9-4.5,6-9.1,5-15.2
	c-0.8-5.3-4.3-10.6-9-13.9l-1.2-0.9c-1.5-1.1-3.4-2.4-5.3-3.5c0.3,0,0.6,0.1,0.8,0.1c1.7,1,3.4,2.2,4.7,3.2l1.2,0.9
	c4.8,3.3,8.3,8.8,9.2,14.1c1,6.2-2.1,10.9-5,15.4c-2.7,4.1-5.3,8-5,13c0.5,7.7,9.2,10.2,17.7,12.7c6.7,1.9,13,3.8,15,8
	c1,2.1,0.8,4.5-0.4,7.5c-0.7,1.7-2.2,3.6-3.8,5.6c-2.9,3.8-6.2,8-5.3,11.8c-0.1-1.5,0.1-3,1-4.7c1.3-2.5,3.5-4.6,5.7-6.7
	c3.7-3.6,7.6-7.3,6.6-13c-1.6-9-13.5-13.8-20.4-15.8l-1-0.3c-3.9-1.1-7.5-2.2-7.8-6.9c-0.2-3.5,1.6-6.3,3.4-9c1.4-2.2,2.9-4.4,3.3-7
	c1.1-6.6-3-16.5-7.3-21.4c-3.2-3.6-6.8-5.6-10.7-7.2c0.6,0.1,1.1,0.2,1.7,0.3c3.4,1.5,6.4,3.5,9.3,6.7c4.4,4.9,8.5,15,7.4,21.7
	c-0.4,2.6-1.9,4.9-3.3,7.1c-1.8,2.8-3.5,5.4-3.3,8.8c0.2,4.5,3.8,5.5,7.5,6.6l1,0.3c7,2.1,19,6.9,20.7,16.1
	c1.1,5.8-2.9,9.6-6.7,13.3c-2.1,2.1-4.3,4.2-5.6,6.6c-1.1,2.2-1.2,4.2-0.7,6.1c0,0,0,0,0,0l0,0c0.8,2.6,2.7,4.9,4.8,7.3
	c1.6,1.9,3.3,3.9,4.3,6c3.2,6.7,2.4,14.8-2.1,21c-1.3,1.7-2.8,3.6-4.4,5.4c-5.6,8-14.8,14.2-23.4,17.1c-2.2,0.7-4.1,1-6.2,1.9
	c1.9,0.1,3.9,0,6-0.3c9.1,0,20.2-6,26-9.6c9.3-5.7,15.4-12.9,17.8-20.6c1.8-6.1-0.3-12.3-2.4-18.3c-1.6-4.7-3.3-9.5-3.1-14.3
	C176.9,103.7,179.1,97.9,181.2,92.3z M113.8,121.5c-5.9,1.3-11.7,5.2-15.1,10.3c-1.1,1.7-2.1,3.6-2.9,5.5c-0.5,1.2-0.8,2.4-1.1,3.6
	l-0.2,0.5c-1.4,4.9-4.7,8.8-9,10.5c-1.8,0.7-3.7,1.3-5.6,1.9c-3.4,1-6.9,2.1-9.9,3.9c-5.4,3.2-4.2,6.8-3.1,10.6
	c1,3.1,1.9,6.3-0.5,9.6c-2.2,3-6.4,5-10.1,4.9c-1.8-0.1-4.4-1.2-5.7-2.9c-0.3-0.4-0.5-0.8-0.6-1.3c2.3,2.3,10.1,3.2,13.7-1.9
	c4.1-5.8-1-14.4,4.7-20.1c4.8-4.7,12.6-4.5,17.6-10C95.3,136.4,97.7,122.8,113.8,121.5z M44.8,129.8c0.2-0.7,0.3-1.4,0.2-2.1
	c0.3,0.5,0.4,1.2,0.5,1.9c0.1,2.5-1.2,5.2-3.3,6.4c-3.5,2.2-9.8,2.1-12.8,1.3c-8.8-2.5-12.4-10.5-13.9-16.7
	c-3-12.5,0.9-24,10.9-32.3c8.6-7.2,19.8-10,30.7-12.7l3.5-0.9c8.6-2.2,14-3.9,17-12.7c1.1-3.2,1.8-6.4,2.4-9.4
	c1.5-6.8,2.9-13.2,8-19.1c4.8-5.5,10.4-9.4,16.6-11.4l0.7-0.2c4.5-1.5,14.2-4.6,19.6-3.5c-4.5,0.2-10.2,1.6-17.3,4.4
	C101,25.4,94.3,28.7,89,35.4c-4.8,6.1-6.5,12.5-8.3,19.3c-0.8,3-1.6,6-2.7,9.1c-4.2,11.9-13.6,13.6-24.4,15.6
	c-2.6,0.5-5.3,1-7.9,1.6C31,84.6,20.7,94.7,17.3,108.7c-1.6,6.6-0.5,14.6,2.9,19.8c3,4.6,8.3,7.6,13.8,7.9c4.3,0.2,7.8-1,9.6-3.2
	C44.3,132.3,44.7,131.1,44.8,129.8z M125.2,19c-0.7,0-1.4,0.1-2.1,0.1C109.9,20.6,97,29.4,89.3,40.1c-8.9,12.3-4.2,32.2-19.9,40.1
	c-14.3,7.2-33.5,6.2-42.3,22.5c-3,5.6-3.7,14.2-1.5,20.2c1.8,5.1,9.1,13.7,15.3,10.9c1.7-0.8,2.8-1.8,3.4-2.8
	c-0.2,0.8-0.5,1.5-1,2.2c-1.7,2.1-5.1,3.3-9.3,3c-5.4-0.3-10.5-3.2-13.5-7.8c-3.3-5.1-4.5-13-2.9-19.5C21,94.9,31.2,84.9,45.7,81.4
	c2.7-0.7,5.3-1.1,7.9-1.6C64.1,77.8,74,76,78.3,63.9c1.1-3.1,1.9-6.2,2.7-9.1c1.8-6.8,3.5-13.1,8.2-19.2c5.2-6.6,11.9-9.9,18.4-12.5
	c7.6-3,13.7-4.5,18.3-4.4c0.1,0,0.2,0.1,0.3,0.1l0,0.1C126,18.9,125.6,18.9,125.2,19z M127.4,19c0,0-0.1,0-0.1-0.1l0,0
	c-0.1-0.1-0.2-0.1-0.3-0.2c0.1,0,0.1,0,0.2-0.1c0.5,0,1,0.1,1.5,0.2c0.3,0.1,0.5,0.2,0.8,0.3C128.8,19.1,128.1,19.1,127.4,19z
	 M179.5,124c2.1,6,4.3,12.1,2.4,18.1c-2.3,7.7-8.4,14.7-17.6,20.4c-5.1,3.1-14.2,8.2-22.4,9.3c14.4-3.2,29.1-14.4,33.9-27.4
	c5.5-14.8-2.5-30,0.5-45c3.6-18.1,6.5-30.8-1.1-48.9c-5.7-13.6-17-24.9-31-30.2c-4.9-1.9-10.3-2.4-15.7-1.8c-0.2,0-0.4-0.1-0.7-0.1
	c6.6-2.4,13.8-1.1,18.9,0.5c6.5,2,13.2,5.7,18.2,10.1c13.4,11.7,21.6,30.3,20.4,46.3c-0.4,5.8-2.5,11.4-4.5,16.8
	c-2.1,5.6-4.3,11.4-4.5,17.4C176.1,114.4,177.8,119.3,179.5,124z"/>
</svg>
