<?xml version="1.0" encoding="utf-8"?>
<!-- Generator: Adobe Illustrator 22.1.0, SVG Export Plug-In . SVG Version: 6.00 Build 0)  -->
<svg version="1.1" id="图层_1" xmlns="http://www.w3.org/2000/svg" xmlns:xlink="http://www.w3.org/1999/xlink" x="0px" y="0px"
	 viewBox="0 0 200.2 200" style="enable-background:new 0 0 200.2 200;" xml:space="preserve">
<style type="text/css">
	.st0{fill:#FFFFFF;stroke:#FFFFFF;stroke-width:5;stroke-miterlimit:10;}
</style>
<path class="st0" d="M197.9,112.5c-0.8-10.9-7.9-20.6-18-25.1l-9.1-42.7c-3.3-15.6-19-28.3-35-28.3H64.3c-16,0-31.7,12.7-35,28.3
	l-9.1,42.7c-10.1,4.5-17.2,14.2-18,25.1l-2.1,27.4c-0.9,11.8,5.8,22.4,16.3,26.7c2.4,9.5,11,16.4,21.1,16.4
	c9.4,0,17.4-5.9,20.4-14.3l84.2,0c3,8.5,11,14.3,20.4,14.3c10.1,0,18.6-6.9,21.1-16.4c10.5-4.3,17.2-14.9,16.3-26.7L197.9,112.5
	L197.9,112.5z M176.8,156c-2.7,0.6-4.6,2.9-4.7,5.7c-0.3,5.1-4.4,9.1-9.5,9.1c-5,0-9-3.8-9.5-8.7c-0.3-3.2-2.9-5.6-6.1-5.6l-94,0
	c-3.2,0-5.8,2.4-6.1,5.6c-0.4,5-4.5,8.7-9.5,8.7c-5.1,0-9.3-4-9.5-9.1c-0.1-2.7-2.1-5-4.7-5.7c-7-1.6-11.5-7.9-11-15.2l2.1-27.4
	c0.5-7.1,5.9-13.6,13.1-15.7c2.3-0.7,4-2.7,4.3-5.1c0-0.3,0.1-0.7,0.1-1c0-0.2,0-0.4,0-0.5l9.3-43.8c2.2-10.1,12.7-18.6,23-18.6
	h71.6c10.3,0,20.9,8.5,23,18.6l9.3,43.8c0,0.2,0,0.4,0.1,0.5c0,0.3,0.1,0.7,0.1,1c0.3,2.4,2,4.5,4.3,5.2c7.2,2.1,12.5,8.6,13.1,15.7
	l2.1,27.4C188.3,148.1,183.8,154.4,176.8,156L176.8,156z M53,93.2h94.2c2.3,0,4.2-0.8,5.4-2.3c1.3-1.5,1.8-3.5,1.5-5.8
	c0-0.1-0.1-0.3-0.1-0.4l-7.4-32.2c-0.9-5.1-5.9-9.3-11.1-9.3l-70.8,0c-5.2,0-10.2,4.2-11.1,9.3l-7.4,32.2c0,0.1-0.1,0.3-0.1,0.4
	c-0.3,2.2,0.2,4.3,1.4,5.7C48.8,92.3,50.7,93.2,53,93.2L53,93.2z M65.4,55.5h69.3l5.9,25.5l-81,0L65.4,55.5L65.4,55.5z M45.6,114.1
	c-7.6,0-13.8,6.2-13.8,13.8c0,7.6,6.2,13.8,13.8,13.8c7.6,0,13.8-6.2,13.8-13.8C59.4,120.3,53.2,114.1,45.6,114.1L45.6,114.1z
	 M154.5,114.1c-7.6,0-13.8,6.2-13.8,13.8c0,7.6,6.2,13.8,13.8,13.8c7.6,0,13.8-6.2,13.8-13.8C168.3,120.3,162.2,114.1,154.5,114.1
	L154.5,114.1z"/>
</svg>
