<?xml version="1.0" encoding="utf-8"?>
<!-- Generator: Adobe Illustrator 22.1.0, SVG Export Plug-In . SVG Version: 6.00 Build 0)  -->
<svg version="1.1" id="图层_1" xmlns="http://www.w3.org/2000/svg" xmlns:xlink="http://www.w3.org/1999/xlink" x="0px" y="0px"
	 viewBox="0 0 12 12" style="enable-background:new 0 0 12 12;" xml:space="preserve">
<style type="text/css">
	.st0{fill:#878787;}
</style>
<title>checked</title>
<desc>Created with Sketch.</desc>
<g id="Page-1">
	<g id="Artboard-5" transform="translate(-71.000000, -48.000000)">
		<path id="Combined-Shape" class="st0" d="M77,60c-3.3,0-6-2.7-6-6s2.7-6,6-6s6,2.7,6,6S80.3,60,77,60z M76.2,56.9l4.7-4.7
			c0.1-0.1,0.1-0.3,0-0.4l-0.6-0.6c-0.1-0.1-0.3-0.1-0.4,0L76,55l-1.9-1.9c-0.1-0.1-0.3-0.1-0.4,0l-0.6,0.6c-0.1,0.1-0.1,0.3,0,0.4
			l2.1,2.1l0.6,0.6C75.9,57,76.1,57,76.2,56.9z"/>
	</g>
</g>
</svg>
