<?xml version="1.0" encoding="utf-8"?>
<!-- Generator: Adobe Illustrator 22.1.0, SVG Export Plug-In . SVG Version: 6.00 Build 0)  -->
<svg version="1.1" id="图层_1" xmlns="http://www.w3.org/2000/svg" xmlns:xlink="http://www.w3.org/1999/xlink" x="0px" y="0px"
	 viewBox="0 0 20 20" style="enable-background:new 0 0 20 20;" xml:space="preserve">
<style type="text/css">
	.st0{filter:url(#Adobe_OpacityMaskFilter);}
	.st1{fill:#FFFFFF;}
	.st2{mask:url(#mask-2_1_);fill:#FFFFFF;stroke:#FFFFFF;stroke-miterlimit:10;}
</style>
<title>education</title>
<desc>Created with Sketch.</desc>
<g id="Page-1">
	<g id="education">
		<g id="Rectangle">
		</g>
		<defs>
			<filter id="Adobe_OpacityMaskFilter" filterUnits="userSpaceOnUse" x="3" y="4" width="14" height="11.3">
				<feColorMatrix  type="matrix" values="1 0 0 0 0  0 1 0 0 0  0 0 1 0 0  0 0 0 1 0"/>
			</filter>
		</defs>
		<mask maskUnits="userSpaceOnUse" x="3" y="4" width="14" height="11.3" id="mask-2_1_">
			<g class="st0">
				<rect id="path-1_1_" class="st1" width="20" height="20"/>
			</g>
		</mask>
		<path id="Combined-Shape" class="st2" d="M13.5,9.8l-3.3,1.7c-0.1,0.1-0.3,0.1-0.4,0L6.5,9.8v3c0.1,0.1,0.3,0.3,0.6,0.4
			c0.7,0.4,1.7,0.6,2.8,0.6c1.2,0,2.1-0.2,2.9-0.6c0.3-0.2,0.5-0.3,0.7-0.4V9.8z M14.5,9.3v3.9l-0.1,0.1c-0.2,0.2-0.5,0.5-1.1,0.8
			c-0.9,0.5-2,0.7-3.3,0.7c-1.4,0-2.5-0.3-3.3-0.7c-0.5-0.3-0.9-0.6-1.1-0.8l-0.1-0.1V9.3L3.8,8.5c-0.4-0.2-0.4-0.7,0-0.9l6-3
			c0.1-0.1,0.3-0.1,0.4,0l6,3c0.4,0.2,0.4,0.7,0,0.9L14.5,9.3z M15,10c0-0.3,0.2-0.5,0.5-0.5S16,9.7,16,10v2.5
			c0,0.3-0.2,0.5-0.5,0.5S15,12.8,15,12.5V10z M5.1,8l4.9,2.4L14.9,8L10,5.6L5.1,8z"/>
	</g>
</g>
</svg>
