<?xml version="1.0" encoding="utf-8"?>
<!-- Generator: Adobe Illustrator 22.1.0, SVG Export Plug-In . SVG Version: 6.00 Build 0)  -->
<svg version="1.1" id="图层_1" xmlns="http://www.w3.org/2000/svg" xmlns:xlink="http://www.w3.org/1999/xlink" x="0px" y="0px"
	 viewBox="0 0 200.4 200" style="enable-background:new 0 0 200.4 200;" xml:space="preserve">
<style type="text/css">
	.st0{fill:#FFFFFF;stroke:#FFFFFF;stroke-width:5;stroke-miterlimit:10;}
</style>
<path class="st0" d="M191.7,73v33.1l7,7l-14.5,15.1l-14.7-14.7l10.1-9.2V78.2c-42.8,17.6-56.5,23.1-65.9,27.4
	c-9.5,4.3-16.3,4.3-25.7,0.7c-9.4-3.5-54.2-19.9-76.4-30.5c-14.8-7.1-15.8-11.6,0.3-17.6c20.9-8,55.5-20.7,73.9-27.6
	c10.9-4.4,16.6-6.8,26.6-1.8c17.8,7.3,58.5,22.6,78.7,31C208.5,67.4,196.6,69.9,191.7,73L191.7,73z M115.6,118.7
	c10.3-4.3,24.3-11.3,39.5-17.8l0,52.3c0,0-19.7,20.9-54.2,20.9c-37.2,0-57.3-20.9-57.3-20.9l0-48.8c11.7,4.8,24.9,8.9,40.9,14.4
	C94.2,122.2,106.7,123.4,115.6,118.7L115.6,118.7z"/>
</svg>
