<?xml version="1.0" encoding="utf-8"?>
<!-- Generator: Adobe Illustrator 22.1.0, SVG Export Plug-In . SVG Version: 6.00 Build 0)  -->
<svg version="1.1" id="图层_1" xmlns="http://www.w3.org/2000/svg" xmlns:xlink="http://www.w3.org/1999/xlink" x="0px" y="0px"
	 viewBox="0 0 20 20" style="enable-background:new 0 0 20 20;" xml:space="preserve">
<style type="text/css">
	.st0{filter:url(#Adobe_OpacityMaskFilter);}
	.st1{fill:#FFFFFF;}
	.st2{mask:url(#mask-2_1_);fill:#FFFFFF;stroke:#FFFFFF;stroke-miterlimit:10;}
</style>
<title>enterprise</title>
<desc>Created with Sketch.</desc>
<g id="Page-1">
	<g id="enterprise">
		<g id="Rectangle">
		</g>
		<defs>
			<filter id="Adobe_OpacityMaskFilter" filterUnits="userSpaceOnUse" x="4" y="3.4" width="12" height="13.1">
				<feColorMatrix  type="matrix" values="1 0 0 0 0  0 1 0 0 0  0 0 1 0 0  0 0 0 1 0"/>
			</filter>
		</defs>
		<mask maskUnits="userSpaceOnUse" x="4" y="3.4" width="12" height="13.1" id="mask-2_1_">
			<g class="st0">
				<rect id="path-1_1_" class="st1" width="20" height="20"/>
			</g>
		</mask>
		<path id="Shape" class="st2" d="M14.4,15.2V5.4L12.8,4L7.6,5.9v0.5l4.7-1.6V16h3.1v-0.7H14.4z M5.9,12.2l2.5-0.5v-1.3l-2.5,0.7
			V12.2z M5.9,16h2.5v-1.3l-2.5,0.2V16z M5.9,14.1l2.5-0.2v-1.3L5.9,13V14.1z M5.9,10.3l2.5-0.7V8.3L5.9,9.1V10.3z M11.2,7L9.8,6.2
			L4.5,8.1l0,7.9h0.7V8.5l3.9-1.3V16h2L11.2,7L11.2,7z"/>
	</g>
</g>
</svg>
