<?xml version="1.0" encoding="utf-8"?>
<!-- Generator: Adobe Illustrator 22.1.0, SVG Export Plug-In . SVG Version: 6.00 Build 0)  -->
<svg version="1.1" id="图层_1" xmlns="http://www.w3.org/2000/svg" xmlns:xlink="http://www.w3.org/1999/xlink" x="0px" y="0px"
	 viewBox="0 0 200 200" style="enable-background:new 0 0 200 200;" xml:space="preserve">
<style type="text/css">
	.st0{fill:#FFFFFF;stroke:#FFFFFF;stroke-width:5;stroke-miterlimit:10;}
</style>
<path class="st0" d="M168.8,0h-62.5c-3.4,0-6.2,2.8-6.2,6.2v175c0,3.4,2.8,6.2,6.2,6.2h62.5c3.4,0,6.2-2.8,6.2-6.2V6.2
	C175,2.8,172.2,0,168.8,0z M162.5,12.5V175h-50V12.5H162.5z M150,50h-25V25h25V50z M150,87.5h-25v-25h25V87.5z M150,125h-25v-25h25
	V125z M125,162.5v-25h25v25H125z M81.2,75H75V37.5H56.2v-25H43.8v25H25V75h-6.2c-3.5,0-6.2,2.8-6.2,6.2v100c0,3.4,2.8,6.2,6.2,6.2
	h62.5c3.4,0,6.2-2.8,6.2-6.2v-100C87.5,77.8,84.7,75,81.2,75z M37.5,50h25v25h-25V50z M75,87.5V175H25V87.5H75z M62.5,125h-25v-25
	h25V125z M37.5,162.5v-25h25v25H37.5z"/>
</svg>
