<?xml version="1.0" encoding="utf-8"?>
<!-- Generator: Adobe Illustrator 22.1.0, SVG Export Plug-In . SVG Version: 6.00 Build 0)  -->
<svg version="1.1" id="图层_1" xmlns="http://www.w3.org/2000/svg" xmlns:xlink="http://www.w3.org/1999/xlink" x="0px" y="0px"
	 viewBox="0 0 200 200" style="enable-background:new 0 0 200 200;" xml:space="preserve">
<style type="text/css">
	.st0{fill:#FFFFFF;stroke:#FFFFFF;stroke-width:5;stroke-miterlimit:10;}
	.st1{opacity:0;fill:#FF776B;stroke:#000000;stroke-width:2;stroke-miterlimit:10;}
</style>
<path class="st0" d="M176.6,136.8l-59-73.1c0.1-1.1,0.2-2.2,0.2-3.3c0-26.4-21.5-47.9-47.9-47.9C43.5,12.5,22,33.9,22,60.3
	c0,26.4,21.5,47.9,47.9,47.9c1.1,0,2.2-0.1,3.3-0.2l73.1,59c1,0.8,2.2,1.2,3.3,1.2c1.4,0,2.7-0.5,3.8-1.6l4.2-4.2
	c0,1.6-0.2,3.3-0.8,5c-1.4,3.7-4.6,6.7-9.6,8.8c-5.9,2.5-15-1.8-25.6-6.8c-19.5-9.1-46.2-21.7-74.8,0.7c-2.3,1.8-2.7,5.2-0.9,7.5
	c1.8,2.3,5.2,2.7,7.5,0.9c23.4-18.4,44.8-8.3,63.7,0.5c9.3,4.3,18.1,8.5,26.3,8.5c2.7,0,5.4-0.5,8-1.5c7.8-3.3,13-8.3,15.5-14.9
	c2.5-6.9,1.3-13.7,0-17.9l9.4-9.4C178.1,141.9,178.3,138.9,176.6,136.8z M32.7,60.3c0-20.5,16.7-37.2,37.2-37.2
	c20.5,0,37.2,16.7,37.2,37.2S90.4,97.5,69.9,97.5C49.4,97.5,32.7,80.8,32.7,60.3z M149.3,155.7l-62.7-50.6
	c12.9-4.9,23.2-15.1,28.1-28.1l50.6,62.7l-7.5,7.5c-0.7,0.4-1.3,1-1.7,1.7L149.3,155.7z"/>
<path class="st1" d="M117.2,100.8c-2.1-2.1-5.5-2.1-7.5,0c-2.1,2.1-2.1,5.5,0,7.5l11.5,11.5c1,1,2.4,1.6,3.8,1.6
	c1.4,0,2.7-0.5,3.8-1.6c2.1-2.1,2.1-5.5,0-7.5L117.2,100.8z"/>
</svg>
