<?xml version="1.0" encoding="utf-8"?>
<!-- Generator: Adobe Illustrator 22.1.0, SVG Export Plug-In . SVG Version: 6.00 Build 0)  -->
<svg version="1.1" id="图层_1" xmlns="http://www.w3.org/2000/svg" xmlns:xlink="http://www.w3.org/1999/xlink" x="0px" y="0px"
	 viewBox="0 0 200 200" style="enable-background:new 0 0 200 200;" xml:space="preserve">
<style type="text/css">
	.st0{fill:#FFFFFF;stroke:#FFFFFF;stroke-width:2;stroke-miterlimit:10;}
</style>
<path class="st0" d="M101.8,77.8c-0.1,0-0.1,0-0.2,0c-15.7-1-28-14-28-29.6c0-16.3,13.3-29.6,29.6-29.6s29.6,13.3,29.6,29.6
	c0,6.7-2.3,13.4-6.2,18.5c-0.9,1.2-2.6,1.4-3.8,0.5c-1.2-0.9-1.4-2.6-0.5-3.8c3.2-4.1,5-9.7,5-15.1c0-13.3-10.8-24.2-24.2-24.2
	S79.1,34.9,79.1,48.3c0,12.7,10.1,23.3,22.9,24.1c1.5,0.1,2.6,1.4,2.5,2.9C104.5,76.7,103.3,77.8,101.8,77.8L101.8,77.8z"/>
<path class="st0" d="M122.8,121.5c-16.3,0-29.6-13.3-29.6-29.6s13.3-29.6,29.6-29.6s29.6,13.3,29.6,29.6S139.2,121.5,122.8,121.5z
	 M122.8,67.7c-13.3,0-24.2,10.8-24.2,24.2s10.8,24.2,24.2,24.2S147,105.2,147,91.9S136.2,67.7,122.8,67.7z"/>
<path class="st0" d="M122.7,108.9c-3.5,0-8-1.9-11.1-4.6c-1.1-1-1.3-2.7-0.3-3.8c1-1.1,2.7-1.3,3.8-0.3c2.1,1.8,5.4,3.2,7.5,3.2
	c3,0,5.5-2,5.5-4.5c0-0.8,0-2.7-6.3-4.6c-3.1-1-10.2-3.2-10.2-9.8c0-5.5,4.9-9.9,11-9.9c3.9,0,7.5,1.9,9.4,4.9
	c0.8,1.3,0.5,2.9-0.8,3.8c-1.2,0.8-2.9,0.5-3.8-0.8c-1-1.5-2.8-2.4-4.9-2.4c-3,0-5.5,2-5.5,4.5c0,1.4,0.8,2.9,6.3,4.6
	c2.5,0.7,10.1,3,10.1,9.8C133.6,104.5,128.7,108.9,122.7,108.9L122.7,108.9z"/>
<path class="st0" d="M122.7,80.1c-1.5,0-2.7-1.2-2.7-2.7v-3.9c0-1.5,1.2-2.7,2.7-2.7s2.7,1.2,2.7,2.7v3.9
	C125.4,78.9,124.2,80.1,122.7,80.1z M122.7,112.9c-1.5,0-2.7-1.2-2.7-2.7v-4c0-1.5,1.2-2.7,2.7-2.7s2.7,1.2,2.7,2.7v4
	C125.4,111.7,124.2,112.9,122.7,112.9z M103.6,63.3c-3.1,0-7.1-1.6-9.8-4c-1.1-1-1.3-2.7-0.3-3.8c1-1.1,2.7-1.3,3.8-0.3
	c1.7,1.5,4.4,2.7,6.2,2.7c2.4,0,4.3-1.5,4.3-3.4c0-0.5,0-2.1-5.1-3.6c-2.7-0.9-9-2.8-9-8.8c0-4.9,4.4-8.9,9.8-8.9
	c3.4,0,6.6,1.7,8.4,4.3c0.8,1.3,0.5,2.9-0.8,3.8c-1.3,0.8-2.9,0.5-3.8-0.8c-0.8-1.2-2.2-1.9-3.8-1.9c-2.4,0-4.3,1.5-4.3,3.4
	c0,1,0.6,2.2,5.1,3.6c2.2,0.6,9,2.6,9,8.8C113.3,59.3,109,63.3,103.6,63.3z"/>
<path class="st0" d="M103.6,38.7c-1.5,0-2.7-1.2-2.7-2.7v-3.4c0-1.5,1.2-2.7,2.7-2.7s2.7,1.2,2.7,2.7v3.4
	C106.3,37.4,105.1,38.7,103.6,38.7z M103.6,66.7c-1.5,0-2.7-1.2-2.7-2.7v-3.4c0-1.5,1.2-2.7,2.7-2.7s2.7,1.2,2.7,2.7V64
	C106.3,65.5,105.1,66.7,103.6,66.7z M129,169.9c-1.1,0-2.3-0.2-3.5-0.6l-39.3-12.4c-1.4-0.5-2.2-2-1.8-3.4c0.5-1.4,2-2.2,3.4-1.8
	l39.3,12.4c1.9,0.6,3.6,0.3,5-0.9c1.8-1.6,2.6-4.5,2.1-7c-0.3-1.5-1.3-3.4-4-4.2l-37.4-11.8c-8.8-2.8-23.7-2.7-43.3,0.3
	c-1.4,0.2-2.9-0.8-3.1-2.3c-0.2-1.5,0.8-2.9,2.3-3.1c20.7-3.1,36-3.1,45.7-0.1l37.4,11.8c4,1.3,6.7,4.3,7.6,8.2
	c1,4.4-0.5,9.3-3.7,12.2C133.8,169,131.5,169.9,129,169.9z"/>
<path class="st0" d="M114.3,181c-15,0-30-3.7-45.9-11.3c-2.1-1-8.2-1-18.6,2c-1.4,0.4-3-0.4-3.4-1.9c-0.4-1.4,0.4-3,1.9-3.4
	c7.4-2.1,17.3-4.1,22.5-1.6c15.1,7.2,29.3,10.8,43.5,10.8c13.9,0,13.9,0,38-12c5.2-2.6,11.5-5.7,19.3-9.5c4.1-2,3.8-6.4,2.6-8.9
	c-0.6-1.2-2.8-4.9-7.4-2.6l-29.2,14.3c-1.3,0.7-3,0.1-3.6-1.3c-0.7-1.3-0.1-3,1.3-3.6l29.2-14.3c6.8-3.3,12.4,0.3,14.7,5.1
	c2.6,5.3,1.7,12.8-5.1,16.2c-7.7,3.8-14,6.9-19.2,9.5C130,180.8,129.5,181,114.3,181L114.3,181z"/>
<path class="st0" d="M49.1,181.4H21.8c-1.5,0-2.7-1.2-2.7-2.7v-49.1c0-1.5,1.2-2.7,2.7-2.7h27.3c1.5,0,2.7,1.2,2.7,2.7v49.1
	C51.8,180.2,50.6,181.4,49.1,181.4z M24.6,176h21.8v-43.6H24.6L24.6,176L24.6,176z"/>
</svg>
