<?xml version="1.0" standalone="no"?><!DOCTYPE svg PUBLIC "-//W3C//DTD SVG 1.1//EN" "http://www.w3.org/Graphics/SVG/1.1/DTD/svg11.dtd"><svg t="1522133058276" class="icon" style="" viewBox="0 0 1024 1024" version="1.1" xmlns="http://www.w3.org/2000/svg" p-id="4733" xmlns:xlink="http://www.w3.org/1999/xlink" width="200" height="200"><defs><style type="text/css"></style></defs><path d="M521.400291 398.473643c-0.272353 0-0.572352-0.013311-0.87235-0.027645-80.473291-5.069256-143.505719-71.562417-143.505719-151.368135 0-83.634025 68.046395-151.681444 151.681443-151.681443s151.681444 68.047419 151.681444 151.682467c0 34.145552-11.526901 68.633081-31.611436 94.617243-4.713968 6.117715-13.489689 7.221463-19.566448 2.507495-6.104404-4.714992-7.221463-13.475355-2.507495-19.566448 16.37807-21.201593 25.779385-49.475163 25.779384-77.557266 0-68.251172-55.538612-123.775449-123.775449-123.775449s-123.775449 55.524277-123.775449 123.775449c0 65.117059 51.559793 119.36148 117.344425 123.51743 7.685283 0.490441 13.543955 7.112931 13.053514 14.797191-0.46382 7.397571-6.594845 13.079111-13.925864 13.079111z" p-id="4734" fill="#b3b3b3"></path><path d="M628.907226 622.276545c-83.634025 0-151.681444-68.046395-151.681443-151.681444s68.046395-151.681444 151.681443-151.681443S780.58867 386.960052 780.58867 470.595101s-68.047419 151.681444-151.681444 151.681444z m0-275.457917c-68.237861 0-123.775449 55.524277-123.775449 123.775449s55.538612 123.775449 123.775449 123.77545 123.775449-55.524277 123.77545-123.77545-55.538612-123.775449-123.77545-123.775449z" p-id="4735" fill="#b3b3b3"></path><path d="M628.034876 557.676548c-17.740861 0-41.122306-9.606092-56.900379-23.354824-5.832051-5.069256-6.431024-13.870574-1.362791-19.689315 5.041611-5.817716 13.870574-6.417713 19.67498-1.348457 10.62793 9.251828 27.550706 16.486602 38.58819 16.486602 15.533364 0 28.178348-10.260355 28.178348-22.877694 0-3.842642 0-14.062041-32.101876-23.450046-15.778073-4.94639-52.158766-16.323804-52.158767-50.224646 0-28.001216 25.152767-50.782664 56.083319-50.782665 19.73027 0 38.206281 9.537492 48.261859 24.893724 4.196906 6.445358 2.397939 15.097189-4.06073 19.307406-6.376758 4.196906-15.042923 2.425584-19.320716-4.046395-4.932056-7.549107-14.470571-12.249764-24.880413-12.249764-15.533364 0-28.178348 10.260355-28.178348 22.877694 0 6.94911 3.924552 14.620059 32.347609 23.517622 12.644984 3.69213 51.914058 15.1791 51.914058 50.156046-0.001024 28.00224-25.153791 50.784712-56.084343 50.784712z" p-id="4736" fill="#b3b3b3"></path><path d="M628.034876 410.341498c-7.711904 0-13.952485-6.240581-13.952485-13.952486v-20.12549c0-7.711904 6.240581-13.952485 13.952485-13.952485s13.952485 6.240581 13.952485 13.952485v20.12549c0 7.711904-6.240581 13.952485-13.952485 13.952486zM628.034876 578.020126c-7.711904 0-13.952485-6.240581-13.952485-13.952486v-20.343577c0-7.711904 6.240581-13.952485 13.952485-13.952485s13.952485 6.240581 13.952485 13.952485v20.343577c0 7.711904-6.240581 13.952485-13.952485 13.952486zM530.284544 324.199978c-15.641896 0-36.271138-8.434767-50.115091-20.506376-5.832051-5.054922-6.431024-13.870574-1.362791-19.689314 5.041611-5.791095 13.843953-6.417713 19.676004-1.348457 8.802342 7.644328 22.754827 13.639176 31.801878 13.639176 12.208809 0 22.155855-7.903371 22.155855-17.617995 0-2.616027 0-10.546019-26.079383-18.190347-13.98013-4.387349-46.163918-14.457261-46.163918-44.964947 0-25.111811 22.482474-45.5373 50.08847-45.5373 17.550418 0 34.03702 8.515654 43.029805 22.223431 4.223527 6.445358 2.425584 15.097189-4.00544 19.32174-6.431024 4.210216-15.097189 2.438895-19.32174-4.006464-3.896908-5.940583-11.446014-9.633737-19.702625-9.633737-12.23543 0-22.182476 7.903371-22.182476 17.631306 0 5.191099 3.188379 11.009839 26.351737 18.258947 11.172637 3.27029 45.891564 13.448734 45.891564 44.896347-0.001024 25.099525-22.456877 45.523989-50.061849 45.52399z" p-id="4737" fill="#b3b3b3"></path><path d="M530.284544 197.890412c-7.711904 0-13.952485-6.240581-13.952485-13.952485v-17.25042c0-7.711904 6.240581-13.952485 13.952485-13.952485s13.952485 6.240581 13.952485 13.952485v17.25042c0 7.711904-6.240581 13.952485-13.952485 13.952485zM530.284544 341.450398c-7.711904 0-13.952485-6.240581-13.952485-13.952486v-17.25042c0-7.711904 6.240581-13.952485 13.952485-13.952485s13.952485 6.240581 13.952485 13.952485v17.25042c0 7.711904-6.240581 13.952485-13.952485 13.952486zM660.300574 869.896044c-5.804406 0-11.826899-0.954261-17.931303-2.87507l-201.36036-63.468604c-7.35764-2.316029-11.418369-10.150799-9.102341-17.509463 2.343674-7.344329 10.165134-11.405059 17.495129-9.115651l201.36036 63.468604c9.973667 3.175068 18.503656 1.525589 25.398499-4.795879 9.102341-8.338522 13.462044-23.150047 10.62793-36.026429-1.66279-7.508151-6.540579-17.345641-20.247333-21.66439l-191.631401-60.416401c-44.883037-14.170573-121.487065-13.693442-221.553426 1.321836-7.35764 1.103748-14.71528-4.08735-15.859984-11.731678-1.144704-7.616683 4.08735-14.729614 11.718368-15.874318 105.735614-15.833363 184.519494-15.955205 234.089878-0.340954l191.631401 60.416401c20.302622 6.404403 34.555106 21.80159 39.078631 42.239365 4.987345 22.495784-2.643672 47.676196-18.994096 62.65052-9.893804 9.07572-21.830259 13.722111-34.719952 13.722111z" p-id="4738" fill="#b3b3b3"></path><path d="M585.30507 926.973555c-76.930648 0-153.725119-18.939831-234.852673-57.882285-10.900283-5.273009-41.748924-5.368231-95.325771 10.014622-7.385285 2.097941-15.151455-2.138896-17.25042-9.551826-2.125586-7.411906 2.153231-15.138145 9.565137-17.263731 37.770106-10.873662 88.403283-21.147327 115.110307-8.352856 77.230646 37.102533 150.100565 55.130081 222.75342 55.130081 71.098597 0 71.098597 0 194.384629-61.479194 26.62409-13.271602 58.863167-29.349673 98.595037-48.807589 21.093062-10.327931 19.566449-32.83805 13.380134-45.455389-2.94367-6.050138-14.470571-24.893724-38.09775-13.366823L704.256995 803.087526c-6.840578 3.378822-15.287632 0.531396-18.667477-6.404403-3.378822-6.908154-0.518086-15.274321 6.404403-18.667477l149.310125-73.128961c34.663638-16.937111 63.440959 1.66279 75.43168 26.174604 13.407778 27.360264 8.774697 65.6761-26.188939 82.78932-39.650983 19.416961-71.834771 35.467388-98.404595 48.712368-126.74574 63.198298-129.171325 64.410578-206.837122 64.410578z" p-id="4739" fill="#b3b3b3"></path><path d="M251.283984 928.840098H111.757083c-7.711904 0-13.952485-6.240581-13.952485-13.952485v-251.148832c0-7.711904 6.240581-13.952485 13.952485-13.952485h139.526901c7.711904 0 13.952485 6.240581 13.952486 13.952485v251.148832c0.001024 7.712928-6.239557 13.952485-13.952486 13.952485z m-125.574415-27.904971h111.62193V677.691267H125.709569v223.24386z" p-id="4740" fill="#b3b3b3"></path></svg>