<?xml version="1.0" encoding="utf-8"?>
<!-- Generator: Adobe Illustrator 22.1.0, SVG Export Plug-In . SVG Version: 6.00 Build 0)  -->
<svg version="1.1" id="图层_1" xmlns="http://www.w3.org/2000/svg" xmlns:xlink="http://www.w3.org/1999/xlink" x="0px" y="0px"
	 viewBox="0 0 20 20" style="enable-background:new 0 0 20 20;" xml:space="preserve">
<style type="text/css">
	.st0{filter:url(#Adobe_OpacityMaskFilter);}
	.st1{fill:#FFFFFF;}
	.st2{mask:url(#mask-2_1_);fill:#FFFFFF;stroke:#FFFFFF;stroke-miterlimit:10;}
</style>
<title>finance</title>
<desc>Created with Sketch.</desc>
<g id="Page-1">
	<g id="finance">
		<g id="Rectangle">
		</g>
		<defs>
			<filter id="Adobe_OpacityMaskFilter" filterUnits="userSpaceOnUse" x="6" y="3.5" width="7.7" height="13">
				<feColorMatrix  type="matrix" values="1 0 0 0 0  0 1 0 0 0  0 0 1 0 0  0 0 0 1 0"/>
			</filter>
		</defs>
		<mask maskUnits="userSpaceOnUse" x="6" y="3.5" width="7.7" height="13" id="mask-2_1_">
			<g class="st0">
				<rect id="path-1_1_" class="st1" width="20" height="20"/>
			</g>
		</mask>
		<path id="Combined-Shape" class="st2" d="M10.5,14.5V16h-1v-1.5c-1-0.1-2-0.5-2.8-1.2l0.9-1c0.7,0.6,1.5,0.9,2.5,0.9
			c1.1,0,1.7-0.4,1.7-1.2c0-0.7-0.4-1.1-1.2-1.2c-0.4,0-0.7-0.1-1.2-0.2c-0.8-0.1-1.3-0.4-1.7-0.8c-0.4-0.4-0.6-1-0.6-1.6
			c0-0.8,0.3-1.4,0.8-1.9c0.4-0.4,0.9-0.6,1.5-0.7V4h1v1.5c0.9,0.1,1.8,0.4,2.5,0.9l-0.7,1.1c-0.7-0.4-1.4-0.7-2.2-0.7
			c-0.4,0-0.8,0.1-1,0.3c-0.3,0.2-0.4,0.5-0.4,1c0,0.3,0.1,0.5,0.3,0.7c0.2,0.2,0.5,0.4,1,0.4c0.2,0,0.6,0.1,1,0.1
			c0.8,0.1,1.4,0.4,1.8,0.9c0.4,0.5,0.6,1,0.6,1.7C13.2,13.5,12.3,14.4,10.5,14.5z"/>
	</g>
</g>
</svg>
