<?xml version="1.0" encoding="utf-8"?>
<!-- Generator: Adobe Illustrator 22.1.0, SVG Export Plug-In . SVG Version: 6.00 Build 0)  -->
<svg version="1.1" id="图层_1" xmlns="http://www.w3.org/2000/svg" xmlns:xlink="http://www.w3.org/1999/xlink" x="0px" y="0px"
	 viewBox="0 0 20 20" style="enable-background:new 0 0 20 20;" xml:space="preserve">
<style type="text/css">
	.st0{filter:url(#Adobe_OpacityMaskFilter);}
	.st1{fill:#FFFFFF;}
	.st2{mask:url(#mask-2_1_);fill:#FFFFFF;stroke:#FFFFFF;stroke-miterlimit:10;}
</style>
<title>food</title>
<desc>Created with Sketch.</desc>
<g id="Page-1">
	<g id="food">
		<g id="Rectangle">
		</g>
		<defs>
			<filter id="Adobe_OpacityMaskFilter" filterUnits="userSpaceOnUse" x="3.5" y="4" width="13" height="13">
				<feColorMatrix  type="matrix" values="1 0 0 0 0  0 1 0 0 0  0 0 1 0 0  0 0 0 1 0"/>
			</filter>
		</defs>
		<mask maskUnits="userSpaceOnUse" x="3.5" y="4" width="13" height="13" id="mask-2_1_">
			<g class="st0">
				<rect id="path-1_1_" class="st1" width="20" height="20"/>
			</g>
		</mask>
		<path id="Combined-Shape" class="st2" d="M12.8,5c0-0.3,0.2-0.5,0.5-0.5s0.5,0.2,0.5,0.5v2.5c0,0.3-0.2,0.5-0.5,0.5
			s-0.5-0.2-0.5-0.5V5z M11.9,10.1c0-0.2,0-0.3,0-0.5c-0.9-0.5-1.4-1.4-1.4-2.4V5.1c0-0.3,0.2-0.5,0.5-0.5s0.5,0.2,0.5,0.5v2.2
			c0,0.7,0.4,1.4,1.1,1.6c0.3,0.3,0.3,0.3,0.3,0.4c0,0.1,0,0.1,0,0.1c0,0.1,0,0.1,0,0.2c0,0.1,0,0.3,0,0.6c0,0.2,0,0.5-0.1,0.8
			c0,0.2-0.1,0.9-0.1,1c0,0.1,0,0.1,0,0.2c-0.1,1.4-0.2,2.2-0.2,2.6c0,0.5,0.4,0.7,0.7,0.7c0.3,0,0.7-0.2,0.7-0.7
			c0-0.4-0.1-1.1-0.2-2.6c0-0.1,0-0.1,0-0.1c-0.1-1.4-0.2-1.5-0.2-1.9c0-0.3,0-0.5,0-0.6c0-0.1,0-0.2,0-0.2c0-0.1,0-0.1,0-0.1
			c0-0.1,0-0.1,0.3-0.4C14.5,8.7,15,8,15,7.2V5.1c0-0.3,0.2-0.5,0.5-0.5S16,4.8,16,5.1v2.2c0,1.1-0.6,2-1.5,2.5c0,0.1,0,0.3,0,0.5
			c0,0.4,0,0.5,0.2,1.8c0,0.1,0,0.1,0,0.1c0.2,1.5,0.2,2.3,0.2,2.7c0,0.7-0.3,1.1-0.9,1.4c-0.3,0.2-0.7,0.3-0.9,0.3
			c-0.3,0-0.6-0.1-0.9-0.2c-0.5-0.3-0.8-0.8-0.8-1.4c0-0.4,0.1-1.2,0.2-2.7c0-0.1,0-0.1,0-0.2c0-0.1,0.1-0.8,0.1-1
			C11.8,10.6,11.9,10.3,11.9,10.1z M8,10.2c0,0.4,0,0.5,0.2,1.8c0,0.1,0,0.1,0,0.1c0.2,1.5,0.2,2.3,0.2,2.7c0,0.7-0.3,1.1-0.9,1.4
			c-0.3,0.2-0.7,0.3-0.9,0.3c-0.3,0-0.6-0.1-0.9-0.2C5.3,16,5,15.5,5,14.8c0-0.4,0.1-1.2,0.2-2.7c0-0.1,0-0.1,0-0.2
			c0-0.1,0.1-0.8,0.1-1c0-0.4,0.1-0.6,0.1-0.8c0-0.2,0-0.3,0-0.5C4.6,9.2,4,8.3,4,7.2c0-1.5,1.2-2.8,2.8-2.8s2.8,1.2,2.8,2.8
			c0,1.1-0.6,2-1.5,2.5C8,9.8,8,10,8,10.2z M6.8,15.5c0.3,0,0.7-0.2,0.7-0.7c0-0.4-0.1-1.1-0.2-2.6c0-0.1,0-0.1,0-0.1
			c-0.1-1.4-0.2-1.5-0.2-1.9C7,10,7,9.7,7,9.6c0-0.1,0-0.1,0-0.2c0-0.1,0,0,0-0.1c0-0.1,0-0.1,0.3-0.4C8,8.7,8.5,8,8.5,7.2
			c0-1-0.8-1.8-1.8-1.8S5,6.3,5,7.2C5,8,5.4,8.6,6.1,8.9c0.3,0.3,0.3,0.3,0.3,0.4c0,0.1,0,0.1,0,0.1c0,0.1,0,0.1,0,0.2
			c0,0.1,0,0.3,0,0.6c0,0.2,0,0.5-0.1,0.8c0,0.2-0.1,0.9-0.1,1c0,0.1,0,0.1,0,0.2C6.1,13.7,6,14.5,6,14.8C6,15.3,6.4,15.5,6.8,15.5z
			"/>
	</g>
</g>
</svg>
