<?xml version="1.0" encoding="utf-8"?>
<!-- Generator: Adobe Illustrator 22.1.0, SVG Export Plug-In . SVG Version: 6.00 Build 0)  -->
<svg version="1.1" id="图层_1" xmlns="http://www.w3.org/2000/svg" xmlns:xlink="http://www.w3.org/1999/xlink" x="0px" y="0px"
	 viewBox="0 0 200 200" style="enable-background:new 0 0 200 200;" xml:space="preserve">
<style type="text/css">
	.st0{fill:#FFFFFF;stroke:#FFFFFF;stroke-width:5;stroke-miterlimit:10;}
</style>
<path class="st0" d="M129.2,175L116.7,66.7h18.6l-9.4-37.8l14.5-3.8l10.4,41.7h32.6L170.8,175H129.2 M41.7,91.7h41.7
	c13.8,0,25,11.2,25,25H16.7C16.7,102.8,27.8,91.7,41.7,91.7 M108.3,150c0,13.8-11.2,25-25,25H41.7c-13.8,0-25-11.2-25-25H108.3
	 M25,125h41.7l12.5,12.5L91.7,125h8.3c4.6,0,8.3,3.8,8.3,8.3c0,4.6-3.8,8.3-8.3,8.3H25c-4.6,0-8.3-3.7-8.3-8.3
	C16.7,128.8,20.4,125,25,125z"/>
</svg>
