<?xml version="1.0" encoding="utf-8"?>
<!-- Generator: Adobe Illustrator 22.1.0, SVG Export Plug-In . SVG Version: 6.00 Build 0)  -->
<svg version="1.1" id="图层_1" xmlns="http://www.w3.org/2000/svg" xmlns:xlink="http://www.w3.org/1999/xlink" x="0px" y="0px"
	 viewBox="0 0 12.9 12" style="enable-background:new 0 0 12.9 12;" xml:space="preserve">
<style type="text/css">
	.st0{fill:#FFFFFF;stroke:#FFFFFF;stroke-miterlimit:10;}
</style>
<title>government</title>
<desc>Created with Sketch.</desc>
<g id="Page-1">
	<g id="government">
		<g id="Rectangle">
		</g>
		<path id="Combined-Shape" class="st0" d="M3.6,2.8h5.9L6.6,1.5L3.6,2.8z M11.1,3.6L11.1,3.6L1.9,3.7V3.6v0.5h9.2V3.6z M2.8,5.1
			v3.7h0.9V5.1H2.8z M1.9,5.1H1.5C1.2,5.1,1,4.9,1,4.6V3.2C1,3,1.1,2.9,1.3,2.8l5.1-2.3c0.1,0,0.2,0,0.4,0l5,2.3
			C12,2.9,12.1,3,12.1,3.2v1.4c0,0.3-0.2,0.5-0.5,0.5h-0.5v3.7c0.2,0,0.3,0.1,0.4,0.2l0.9,1.8c0.2,0.3-0.1,0.7-0.4,0.7H1
			c-0.3,0-0.6-0.4-0.4-0.7l1-1.8C1.7,8.9,1.8,8.8,2,8.8L1.9,5.1L1.9,5.1z M4.7,5.1v3.7h1.4V5.1H4.7z M7,5.1v3.7h1.4V5.1H7z M9.3,5.1
			v3.7h0.9V5.1H9.3z M1.7,10.6h9.6l-0.5-0.9H2.2L1.7,10.6z"/>
	</g>
</g>
</svg>
