<?xml version="1.0" encoding="utf-8"?>
<!-- Generator: Adobe Illustrator 22.1.0, SVG Export Plug-In . SVG Version: 6.00 Build 0)  -->
<svg version="1.1" id="图层_1" xmlns="http://www.w3.org/2000/svg" xmlns:xlink="http://www.w3.org/1999/xlink" x="0px" y="0px"
	 viewBox="0 0 168 168" style="enable-background:new 0 0 168 168;" xml:space="preserve">
<style type="text/css">
	.st0{fill:#FFFFFF;stroke:#FFFFFF;stroke-width:2;stroke-miterlimit:10;}
</style>
<path class="st0" d="M162.4,138.4h-11l-4.6-9.6h6.4c2.5,0,4.6-2.1,4.6-4.8s-2-4.8-4.6-4.8H144V52.2h9.2c2.5,0,4.6-2.1,4.6-4.8
	s-2-4.8-4.6-4.8h-23.1V28.3l0,0c0-2.6-2-4.8-4.6-4.8l0,0H42.5l0,0c-2.5,0-4.6,2.1-4.6,4.8l0,0v14.3H14.8c-2.5,0-4.6,2.1-4.6,4.8
	s2,4.8,4.6,4.8h9.2v67h-9.2c-2.5,0-4.6,2.1-4.6,4.8s2,4.8,4.6,4.8h6.4l-4.7,9.7h-11c-2.5,0-4.6,2.1-4.6,4.8s2,4.8,4.6,4.8h156.8
	c2.5,0,4.6-2.1,4.6-4.8S165,138.4,162.4,138.4L162.4,138.4z M47.1,33.1h73.8v9.6H47.1V33.1z M42.5,52.2h92.3v67h-18.5v-43
	c0-2.6-2-4.8-4.6-4.8s-4.6,2.1-4.6,4.8v43H88.6v-43c0-2.6-2-4.8-4.6-4.8c-2.5,0-4.6,2.1-4.6,4.8v43H61v-43c0-2.6-2-4.8-4.6-4.8
	c-2.5,0-4.6,2.1-4.6,4.8v43H33.3v-67H42.5z M26.9,138.4l4.6-9.6h105l4.6,9.6H26.9z"/>
</svg>
