<?xml version="1.0" encoding="utf-8"?>
<!-- Generator: Adobe Illustrator 22.1.0, SVG Export Plug-In . SVG Version: 6.00 Build 0)  -->
<svg version="1.1" id="图层_1" xmlns="http://www.w3.org/2000/svg" xmlns:xlink="http://www.w3.org/1999/xlink" x="0px" y="0px"
	 viewBox="0 0 276.8 200" style="enable-background:new 0 0 276.8 200;" xml:space="preserve">
<style type="text/css">
	.st0{fill:#B3B3B3;}
</style>
<path class="st0" d="M239.4,169.7h-15.1L218,157h8.8c3.5,0,6.3-2.8,6.3-6.3s-2.8-6.3-6.3-6.3h-12.7V55.6h12.7c3.5,0,6.3-2.8,6.3-6.3
	c0-3.5-2.8-6.3-6.3-6.3h-31.7v-19c0,0,0,0,0,0c0-3.5-2.8-6.3-6.3-6.3c0,0,0,0,0,0H74.6c0,0,0,0,0,0c-3.5,0-6.3,2.8-6.3,6.3
	c0,0,0,0,0,0v19H36.6c-3.5,0-6.3,2.8-6.3,6.3s2.8,6.3,6.3,6.3h12.7v88.7H36.6c-3.5,0-6.3,2.8-6.3,6.3s2.8,6.3,6.3,6.3h8.8L39,169.7
	H23.9c-3.5,0-6.3,2.8-6.3,6.3s2.8,6.3,6.3,6.3h215.5c3.5,0,6.3-2.8,6.3-6.3S242.9,169.7,239.4,169.7L239.4,169.7z M81,30.3h101.4V43
	H81V30.3z M74.6,55.6h126.8v88.7h-25.4v-57c0-3.5-2.8-6.3-6.3-6.3c-3.5,0-6.3,2.8-6.3,6.3v57H138v-57c0-3.5-2.8-6.3-6.3-6.3
	c-3.5,0-6.3,2.8-6.3,6.3v57H100v-57c0-3.5-2.8-6.3-6.3-6.3c-3.5,0-6.3,2.8-6.3,6.3v57H62V55.6H74.6z M53.2,169.7l6.3-12.7h144.3
	l6.3,12.7H53.2z"/>
</svg>
