<?xml version="1.0" encoding="utf-8"?>
<!-- Generator: Adobe Illustrator 22.1.0, SVG Export Plug-In . SVG Version: 6.00 Build 0)  -->
<svg version="1.1" id="图层_1" xmlns="http://www.w3.org/2000/svg" xmlns:xlink="http://www.w3.org/1999/xlink" x="0px" y="0px"
	 viewBox="0 0 200 200" style="enable-background:new 0 0 200 200;" xml:space="preserve">
<style type="text/css">
	.st0{fill:#FFFFFF;stroke:#FFFFFF;stroke-width:2;stroke-miterlimit:10;}
</style>
<path class="st0" d="M168.8,181.3c0,3.4-2.8,6.3-6.3,6.3H37.5c-3.4,0-6.3-2.8-6.3-6.3V56.2c0-3.4,2.8-6.3,6.3-6.3h31.3V21.8
	c0-5.2,4.2-9.4,9.4-9.4h43.8c5.2,0,9.4,4.2,9.4,9.4V50h31.3c3.4,0,6.3,2.8,6.3,6.3V181.3z M156.3,175V62.5h-25v3.1
	c0,5.2-4.2,9.4-9.4,9.4H78.1c-5.2,0-9.4-4.2-9.4-9.4v-3.1h-25V175h37.5l0-21.9c0-1.7,1.5-3.1,3.1-3.1h31.3c1.7,0,3.1,1.5,3.1,3.1
	V175H156.3z M68.7,96.9c0,1.7-1.5,3.1-3.1,3.1h-6.3c-1.7,0-3.1-1.5-3.1-3.1v-6.3c0-1.7,1.5-3.1,3.1-3.1h6.3c1.7,0,3.1,1.5,3.1,3.1
	V96.9z M68.7,121.9c0,1.7-1.5,3.1-3.1,3.1h-6.3c-1.7,0-3.1-1.5-3.1-3.1v-6.3c0-1.7,1.5-3.1,3.1-3.1h6.3c1.7,0,3.1,1.5,3.1,3.1V121.9
	z M68.7,146.9c0,1.7-1.5,3.1-3.1,3.1h-6.3c-1.7,0-3.1-1.5-3.1-3.1v-6.3c0-1.7,1.5-3.1,3.1-3.1h6.3c1.7,0,3.1,1.5,3.1,3.1V146.9z
	 M118.8,28.1c0-1.7-1.5-3.1-3.1-3.1h-6.3c-1.7,0-3.1,1.5-3.1,3.1v9.4H93.7v-9.4c0-1.7-1.5-3.1-3.1-3.1h-6.3c-1.7,0-3.1,1.5-3.1,3.1
	v31.3c0,1.7,1.5,3.1,3.1,3.1h6.3c1.7,0,3.1-1.5,3.1-3.1V50h12.5v9.4c0,1.7,1.5,3.1,3.1,3.1h6.3c1.7,0,3.1-1.5,3.1-3.1V28.1z
	 M93.7,96.9c0,1.7-1.5,3.1-3.1,3.1h-6.3c-1.7,0-3.1-1.5-3.1-3.1v-6.3c0-1.7,1.5-3.1,3.1-3.1h6.3c1.7,0,3.1,1.5,3.1,3.1V96.9z
	 M93.7,121.9c0,1.7-1.5,3.1-3.1,3.1h-6.3c-1.7,0-3.1-1.5-3.1-3.1v-6.3c0-1.7,1.5-3.1,3.1-3.1h6.3c1.7,0,3.1,1.5,3.1,3.1V121.9z
	 M118.8,96.9c0,1.7-1.5,3.1-3.1,3.1h-6.3c-1.7,0-3.1-1.5-3.1-3.1v-6.3c0-1.7,1.5-3.1,3.1-3.1h6.3c1.7,0,3.1,1.5,3.1,3.1V96.9z
	 M118.8,121.9c0,1.7-1.5,3.1-3.1,3.1h-6.3c-1.7,0-3.1-1.5-3.1-3.1v-6.3c0-1.7,1.5-3.1,3.1-3.1h6.3c1.7,0,3.1,1.5,3.1,3.1V121.9z
	 M143.8,96.9c0,1.7-1.5,3.1-3.1,3.1h-6.3c-1.7,0-3.1-1.5-3.1-3.1v-6.3c0-1.7,1.5-3.1,3.1-3.1h6.3c1.7,0,3.1,1.5,3.1,3.1V96.9z
	 M143.8,121.9c0,1.7-1.5,3.1-3.1,3.1h-6.3c-1.7,0-3.1-1.5-3.1-3.1v-6.3c0-1.7,1.5-3.1,3.1-3.1h6.3c1.7,0,3.1,1.5,3.1,3.1V121.9z
	 M143.8,146.9c0,1.7-1.5,3.1-3.1,3.1h-6.3c-1.7,0-3.1-1.5-3.1-3.1v-6.3c0-1.7,1.5-3.1,3.1-3.1h6.3c1.7,0,3.1,1.5,3.1,3.1V146.9z"/>
</svg>
