<?xml version="1.0" encoding="utf-8"?>
<!-- Generator: Adobe Illustrator 22.1.0, SVG Export Plug-In . SVG Version: 6.00 Build 0)  -->
<svg version="1.1" id="图层_1" xmlns="http://www.w3.org/2000/svg" xmlns:xlink="http://www.w3.org/1999/xlink" x="0px" y="0px"
	 viewBox="0 0 20 20" style="enable-background:new 0 0 20 20;" xml:space="preserve">
<style type="text/css">
	.st0{filter:url(#Adobe_OpacityMaskFilter);}
	.st1{fill:#FFFFFF;}
	.st2{mask:url(#mask-2_1_);fill:#FFFFFF;stroke:#FFFFFF;stroke-miterlimit:10;}
</style>
<title>me</title>
<desc>Created with Sketch.</desc>
<g id="Page-1">
	<g id="me">
		<g id="Rectangle-4">
		</g>
		<defs>
			<filter id="Adobe_OpacityMaskFilter" filterUnits="userSpaceOnUse" x="4.5" y="4" width="11" height="12.5">
				<feColorMatrix  type="matrix" values="1 0 0 0 0  0 1 0 0 0  0 0 1 0 0  0 0 0 1 0"/>
			</filter>
		</defs>
		<mask maskUnits="userSpaceOnUse" x="4.5" y="4" width="11" height="12.5" id="mask-2_1_">
			<g class="st0">
				<rect id="path-1_1_" class="st1" width="20" height="20"/>
			</g>
		</mask>
		<path id="Combined-Shape" class="st2" d="M9.5,11V9h1v2h2v1h-2v2h-1v-2h-2v-1H9.5z M12,7V6c0-0.3-0.2-0.5-0.5-0.5h-3
			C8.2,5.5,8,5.7,8,6v1H12z M7,7V6c0-0.8,0.7-1.5,1.5-1.5h3C12.3,4.5,13,5.2,13,6v1h1c0.5,0,1,0.4,1,1v7c0,0.6-0.5,1-1,1H6
			c-0.5,0-1-0.4-1-1V8c0-0.6,0.5-1,1-1H7z M6,8v7h8V8H6z"/>
	</g>
</g>
</svg>
