<?xml version="1.0" standalone="no"?><!DOCTYPE svg PUBLIC "-//W3C//DTD SVG 1.1//EN" "http://www.w3.org/Graphics/SVG/1.1/DTD/svg11.dtd"><svg t="1522089022208" class="icon" style="" viewBox="0 0 1024 1024" version="1.1" xmlns="http://www.w3.org/2000/svg" p-id="2192" xmlns:xlink="http://www.w3.org/1999/xlink" width="200" height="200"><defs><style type="text/css"></style></defs><path d="M864.193 928.229c0 17.51-14.508 32.018-32.018 32.018L191.824 960.247c-17.51 0-32.018-14.508-32.018-32.018L159.806 287.877c0-17.51 14.508-32.018 32.018-32.018l160.088 0L351.912 111.78c0-26.515 21.512-48.026 48.026-48.026l224.123 0c26.515 0 48.026 21.512 48.026 48.026l0 144.079 160.088 0c17.51 0 32.018 14.508 32.018 32.018L864.193 928.229zM800.158 896.211 800.158 319.895l-128.07 0 0 16.009c0 26.515-21.512 48.026-48.026 48.026L399.938 383.93c-26.515 0-48.026-21.512-48.026-48.026l0-16.009-128.07 0 0 576.316 192.105 0L415.947 784.149c0-8.505 7.504-16.009 16.009-16.009l160.088 0c8.505 0 16.009 7.504 16.009 16.009l0 112.062L800.158 896.211zM351.912 495.991c0 8.505-7.504 16.009-16.009 16.009l-32.018 0c-8.505 0-16.009-7.504-16.009-16.009l0-32.018c0-8.505 7.504-16.009 16.009-16.009l32.018 0c8.505 0 16.009 7.504 16.009 16.009L351.912 495.991zM351.912 624.062c0 8.505-7.504 16.009-16.009 16.009l-32.018 0c-8.505 0-16.009-7.504-16.009-16.009l0-32.018c0-8.505 7.504-16.009 16.009-16.009l32.018 0c8.505 0 16.009 7.504 16.009 16.009L351.912 624.062zM351.912 752.132c0 8.505-7.504 16.009-16.009 16.009l-32.018 0c-8.505 0-16.009-7.504-16.009-16.009l0-32.018c0-8.505 7.504-16.009 16.009-16.009l32.018 0c8.505 0 16.009 7.504 16.009 16.009L351.912 752.132zM608.053 143.798c0-8.505-7.504-16.009-16.009-16.009l-32.018 0c-8.505 0-16.009 7.504-16.009 16.009l0 48.026-64.035 0 0-48.026c0-8.505-7.504-16.009-16.009-16.009l-32.018 0c-8.505 0-16.009 7.504-16.009 16.009l0 160.088c0 8.505 7.504 16.009 16.009 16.009l32.018 0c8.505 0 16.009-7.504 16.009-16.009l0-48.026 64.035 0 0 48.026c0 8.505 7.504 16.009 16.009 16.009l32.018 0c8.505 0 16.009-7.504 16.009-16.009L608.053 143.798zM479.982 495.991c0 8.505-7.504 16.009-16.009 16.009l-32.018 0c-8.505 0-16.009-7.504-16.009-16.009l0-32.018c0-8.505 7.504-16.009 16.009-16.009l32.018 0c8.505 0 16.009 7.504 16.009 16.009L479.982 495.991zM479.982 624.062c0 8.505-7.504 16.009-16.009 16.009l-32.018 0c-8.505 0-16.009-7.504-16.009-16.009l0-32.018c0-8.505 7.504-16.009 16.009-16.009l32.018 0c8.505 0 16.009 7.504 16.009 16.009L479.982 624.062zM608.053 495.991c0 8.505-7.504 16.009-16.009 16.009l-32.018 0c-8.505 0-16.009-7.504-16.009-16.009l0-32.018c0-8.505 7.504-16.009 16.009-16.009l32.018 0c8.505 0 16.009 7.504 16.009 16.009L608.053 495.991zM608.053 624.062c0 8.505-7.504 16.009-16.009 16.009l-32.018 0c-8.505 0-16.009-7.504-16.009-16.009l0-32.018c0-8.505 7.504-16.009 16.009-16.009l32.018 0c8.505 0 16.009 7.504 16.009 16.009L608.053 624.062zM736.123 495.991c0 8.505-7.504 16.009-16.009 16.009l-32.018 0c-8.505 0-16.009-7.504-16.009-16.009l0-32.018c0-8.505 7.504-16.009 16.009-16.009l32.018 0c8.505 0 16.009 7.504 16.009 16.009L736.123 495.991zM736.123 624.062c0 8.505-7.504 16.009-16.009 16.009l-32.018 0c-8.505 0-16.009-7.504-16.009-16.009l0-32.018c0-8.505 7.504-16.009 16.009-16.009l32.018 0c8.505 0 16.009 7.504 16.009 16.009L736.123 624.062zM736.123 752.132c0 8.505-7.504 16.009-16.009 16.009l-32.018 0c-8.505 0-16.009-7.504-16.009-16.009l0-32.018c0-8.505 7.504-16.009 16.009-16.009l32.018 0c8.505 0 16.009 7.504 16.009 16.009L736.123 752.132z" p-id="2193" fill="#ebc48d"></path></svg>