<?xml version="1.0" encoding="utf-8"?>
<!-- Generator: Adobe Illustrator 22.1.0, SVG Export Plug-In . SVG Version: 6.00 Build 0)  -->
<svg version="1.1" id="图层_1" xmlns="http://www.w3.org/2000/svg" xmlns:xlink="http://www.w3.org/1999/xlink" x="0px" y="0px"
	 viewBox="0 0 20 20" style="enable-background:new 0 0 20 20;" xml:space="preserve">
<style type="text/css">
	.st0{filter:url(#Adobe_OpacityMaskFilter);}
	.st1{fill:#FFFFFF;}
	.st2{mask:url(#mask-2_1_);fill:#FFFFFF;stroke:#FFFFFF;stroke-miterlimit:10;}
</style>
<title>hotel</title>
<desc>Created with Sketch.</desc>
<g id="Page-1">
	<g id="hotel">
		<g id="Rectangle">
		</g>
		<defs>
			<filter id="Adobe_OpacityMaskFilter" filterUnits="userSpaceOnUse" x="5.2" y="4.5" width="9.6" height="11">
				<feColorMatrix  type="matrix" values="1 0 0 0 0  0 1 0 0 0  0 0 1 0 0  0 0 0 1 0"/>
			</filter>
		</defs>
		<mask maskUnits="userSpaceOnUse" x="5.2" y="4.5" width="9.6" height="11" id="mask-2_1_">
			<g class="st0">
				<rect id="path-1_1_" class="st1" width="20" height="20"/>
			</g>
		</mask>
		<path id="H" class="st2" d="M13.2,5C13.3,5,13.3,5,13.2,5l1,0.3c0.1,0,0.1,0.1,0.1,0.1v9.4c0,0.1-0.1,0.2-0.2,0.2h-2c0,0,0,0,0,0
			l-0.9-0.3c-0.1,0-0.1-0.1-0.1-0.1v-2.1h-2c-0.1,0-0.1,0-0.1,0.1v2.3c0,0.1-0.1,0.2-0.2,0.2h-2c0,0,0,0-0.1,0l-0.9-0.3
			c-0.1,0-0.1-0.1-0.1-0.1V5h2.2l1,0.4v4.5h2c0.1,0,0.1,0,0.1-0.1V5.1c0-0.1,0-0.1,0.1-0.1H13.2z M6.2,14c0,0.1,0,0.1,0.1,0.1h0.9
			c0.1,0,0.1,0,0.1-0.1v-2.4c0-0.1,0-0.1,0.1-0.1h4c0.1,0,0.1,0,0.1,0.1V14c0,0.1,0,0.1,0.1,0.1h0.9c0.1,0,0.1,0,0.1-0.1V5.7
			c0-0.1,0-0.1-0.1-0.1h-0.9c-0.1,0-0.1,0-0.1,0.1v4.6c0,0.1,0,0.1-0.1,0.1h-4c-0.1,0-0.1,0-0.1-0.1V5.7c0-0.1,0-0.1-0.1-0.1H6.4
			c-0.1,0-0.1,0-0.1,0.1V14z"/>
	</g>
</g>
</svg>
