<?xml version="1.0" standalone="no"?><!DOCTYPE svg PUBLIC "-//W3C//DTD SVG 1.1//EN" "http://www.w3.org/Graphics/SVG/1.1/DTD/svg11.dtd"><svg class="icon" width="200px" height="200.00px" viewBox="0 0 1024 1024" version="1.1" xmlns="http://www.w3.org/2000/svg"><path fill="white" d="M780.023848 239.517095c-22.124903-52.209082-59.029418-96.621595-105.454774-128.019699-46.415123-31.398104-102.440114-49.773613-162.556283-49.767474-40.070624-0.002047-78.344323 8.160867-113.145943 22.909779-52.210106 22.125927-96.625688 59.032488-128.026862 105.460914-31.401174 46.418192-49.779753 102.446253-49.774637 162.566516 0.002047 9.925047 1.001817 20.579711 2.811022 31.946596 3.3984 21.302165 9.645684 45.13292 17.977443 70.834278 14.58416 44.951795 35.586496 95.601358 59.244312 147.053194 35.484166 77.155241 76.94751 156.051125 111.6161 219.182978 34.664497 63.125713 62.533218 110.474091 70.773903 124.376729l0.021489 0.036839 0.027629 0.045025c3.006474 4.994758 7.213285 9.016351 12.108782 11.793604 4.89345 2.778276 10.516518 4.332678 16.367783 4.333702 5.848195-0.001023 11.473309-1.553379 16.372899-4.339842 4.900613-2.787486 9.115612-6.835685 12.101619-11.879562l-0.01228 0.021489c13.437034-22.626323 78.668711-133.543506 140.708696-257.06782 31.021527-61.776995 61.247946-126.686331 83.84971-185.52746 11.30037-29.430286 20.700461-57.343009 27.334555-82.735329 3.316535-12.700253 5.942339-24.772196 7.752568-36.136012 1.808182-11.364839 2.806929-22.017456 2.809999-31.939433C802.93465 312.592414 794.77276 274.317693 780.023848 239.517095zM771.827165 380.098901c-3.048429 19.171642-8.91095 41.768289-16.934694 66.49239-14.037714 43.291992-34.657334 93.128027-58.017368 143.918807-35.042097 76.207659-76.240405 154.626683-110.701265 217.373773-34.462906 62.750159-62.192458 109.85192-70.331835 123.555014l-0.01228 0.021489c-0.37146 0.630357-0.927115 1.175779-1.609661 1.564635-0.681522 0.388856-1.450025 0.593518-2.206248 0.592494-0.753153 0.001023-1.52268-0.201591-2.224668-0.600681-0.698918-0.396019-1.288343-0.964978-1.694595-1.64036-13.304004-22.442128-78.210269-132.845611-139.66697-255.216659-30.756491-61.231573-60.644195-125.475759-82.71077-182.938496-11.034311-28.721135-20.106943-55.748698-26.362414-79.70839-3.12927-11.976776-5.552459-23.183002-7.179516-33.406854-1.630127-10.221806-2.455935-19.461237-2.453888-27.440979 0.002047-36.180014 7.353478-70.609151 20.641109-101.969393 19.928888-47.034223 53.253878-87.146802 95.137801-115.463732 41.893132-28.316929 92.257194-44.846394 146.514935-44.851511 36.177967 0.002047 70.604034 7.352455 101.96223 20.638039 47.031153 19.926842 87.140663 53.247738 115.455545 95.128591 28.315906 41.891086 44.842301 92.255147 44.848441 146.516981C774.282077 360.64278 773.455245 369.880165 771.827165 380.098901zM595.380524 228.999554c-23.789823-16.09763-52.555983-25.530466-83.368756-25.52535-20.534685-0.002047-40.182164 4.185322-58.032718 11.751648-26.78197 11.351536-49.5403 30.263258-65.639976 54.06536-16.099676 23.791869-25.533536 52.560076-25.52842 83.374896-0.002047 20.543895 4.185322 40.196491 11.752672 58.049091 11.352559 26.786063 30.268374 49.5403 54.072523 65.63486 23.793916 16.09456 52.563146 25.521257 83.374896 25.51614 20.534685 0.002047 40.180118-4.183276 58.028625-11.746532 26.7789-11.347442 49.533137-30.257118 65.62872-54.060243 16.095583-23.793916 25.523303-52.567239 25.51921-83.392292 0.002047-20.534685-4.184299-40.182164-11.748578-58.030671C638.088208 267.853467 619.179556 245.098207 595.380524 228.999554zM623.054817 399.537625c-9.148357 21.61018-24.472368 40.061414-43.723827 53.074799-19.260669 13.013385-42.36283 20.595061-67.320245 20.600177-16.644075-0.002047-32.446993-3.37691-46.856168-9.477862-21.60711-9.148357-40.063461-24.472368-53.081962-43.726897-13.017478-19.264762-20.60427-42.373063-20.61041-67.342758 0.002047-16.643052 3.377934-32.443923 9.481955-46.852074 9.152451-21.606087 24.482601-40.061414 43.739177-53.078893 19.266809-13.016455 42.37204-20.602224 67.326385-20.60734 16.643052 0.002047 32.4429 3.377934 46.849004 9.480932 21.60404 9.151427 40.056298 24.478508 53.069683 43.733037 13.015432 19.264762 20.59813 42.36897 20.60427 67.325361C632.531656 369.320417 629.156792 385.126404 623.054817 399.537625z" /></svg>