<?xml version="1.0" encoding="utf-8"?>
<!-- Generator: Adobe Illustrator 22.1.0, SVG Export Plug-In . SVG Version: 6.00 Build 0)  -->
<svg version="1.1" id="图层_1" xmlns="http://www.w3.org/2000/svg" xmlns:xlink="http://www.w3.org/1999/xlink" x="0px" y="0px"
	 viewBox="0 0 200 200" style="enable-background:new 0 0 200 200;" xml:space="preserve">
<style type="text/css">
	.st0{fill:#FFFFFF;stroke:#FFFFFF;stroke-width:2;stroke-miterlimit:10;}
</style>
<path class="st0" d="M96.3,116.9c-0.5,0-0.9-0.1-1.3-0.3c-1-0.5-1.8-1.4-1.9-2.5c-0.1-0.4,0-0.9,0.1-1.3l6.4-19.7
	c0.1-0.2,0.1-0.3,0.2-0.6c0.2-0.3,0.3-0.5,0.6-0.7l71.8-69.7c0.3-0.2,0.5-0.4,0.8-0.6c0.9-0.5,2-0.5,2.9,0c0.3,0.2,0.6,0.4,0.8,0.6
	l13.8,13.4c0.2,0.2,0.4,0.5,0.6,0.8c0.5,0.9,0.5,2,0,2.9c-0.2,0.3-0.4,0.5-0.6,0.8l-71.8,69.7c-0.2,0.2-0.2,0.2-0.5,0.4
	c-0.3,0.2-0.5,0.3-0.8,0.4l-20.3,6.2c-0.3,0.1-0.3,0.1-0.7,0.1C96.5,116.9,96.4,116.9,96.3,116.9L96.3,116.9z M101.3,109l13.6-4.2
	l68.9-67l-9.3-9l-68.9,67C104.2,100.2,102.7,104.6,101.3,109L101.3,109z"/>
<path class="st0" d="M177.1,52c-0.8,0-1.6-0.3-2.2-0.8c-4.8-4.4-9.4-9-14-13.6c-0.4-0.4-0.6-0.8-0.8-1.3c-0.4-1.4,0.4-3,1.8-3.6
	c0.4-0.2,0.7-0.3,1.1-0.3c0.4,0,0.8,0,1.2,0.1c0.5,0.1,0.9,0.4,1.3,0.7c4.8,4.4,9.4,9,14,13.6c0.3,0.3,0.5,0.7,0.7,1.1
	c0.5,1.4-0.1,2.9-1.3,3.7c-0.4,0.3-0.9,0.4-1.4,0.5C177.4,52,177.3,52,177.1,52L177.1,52z"/>
<path class="st0" d="M46,171.2c-0.4,0-0.8-0.1-1.1-0.2c-0.9-0.3-1.6-1-1.9-1.8c-0.1-0.4-0.2-0.7-0.2-1.1V42.8c0-0.4,0.1-0.7,0.2-1.1
	c0.3-0.8,1-1.5,1.9-1.8c0.4-0.1,0.7-0.2,1.1-0.2h109.4c0.4,0,0.5,0,0.8,0.1c0.5,0.1,1,0.4,1.4,0.8c0.3,0.3,0.5,0.6,0.7,1
	c0.5,1.1,0.4,2.4-0.4,3.3c-0.3,0.3-0.6,0.6-0.9,0.8c-0.4,0.2-0.8,0.3-1.2,0.4c-0.1,0-0.3,0-0.4,0H49.3v119h106.7V69.6l0-0.4
	c0-0.1,0-0.3,0.1-0.4c0.1-0.4,0.3-0.7,0.5-1.1c0.9-1.2,2.6-1.6,4-1c0.4,0.2,0.7,0.4,1,0.7c0.4,0.4,0.6,0.9,0.8,1.4
	c0.1,0.3,0.1,0.4,0.1,0.8v98.5c0,0.4-0.1,0.7-0.2,1.1c-0.3,0.8-1,1.5-1.9,1.8c-0.4,0.1-0.7,0.2-1.1,0.2H46L46,171.2z"/>
<path class="st0" d="M65.5,75.1c-0.2,0-0.3,0-0.5,0c-0.6-0.1-1.2-0.4-1.7-0.8c-0.9-0.8-1.3-2.2-0.9-3.3c0.1-0.3,0.3-0.6,0.5-0.9
	c0.2-0.3,0.5-0.5,0.8-0.7c0.5-0.3,1-0.4,1.5-0.5c18.8-0.8,37.7,0,56.6,0c0.2,0,0.3,0,0.5,0c0.6,0.1,1.2,0.4,1.7,0.8
	c0.3,0.2,0.5,0.5,0.7,0.8c0.2,0.3,0.3,0.6,0.3,1c0.2,1.2-0.4,2.5-1.4,3.2c-0.5,0.3-1,0.4-1.5,0.5C103.2,75.9,84.3,75.1,65.5,75.1
	L65.5,75.1z"/>
<path class="st0" d="M65.5,96.3c-0.7,0-1.3-0.2-1.8-0.6c-1.2-0.8-1.7-2.2-1.3-3.5c0.1-0.3,0.3-0.7,0.5-0.9c0.3-0.3,0.6-0.6,1-0.8
	c0.4-0.3,0.9-0.4,1.4-0.4c12.5-0.4,25,0,37.5,0c0.7,0,1.3,0.2,1.8,0.6c1.2,0.8,1.7,2.2,1.3,3.5c-0.1,0.3-0.3,0.7-0.5,0.9
	c-0.3,0.3-0.6,0.6-1,0.8c-0.4,0.3-0.9,0.4-1.4,0.4C90.5,96.7,78,96.3,65.5,96.3L65.5,96.3z"/>
<path class="st0" d="M65.5,117.5c-0.5,0-1-0.1-1.5-0.3c-0.4-0.2-0.8-0.5-1-0.8c-0.9-1.1-1-2.7-0.1-3.8c0.2-0.3,0.4-0.5,0.7-0.7
	c0.5-0.4,1.1-0.6,1.8-0.6c9.9-0.3,19.8,0,29.7,0c0.5,0,1,0.1,1.5,0.3c0.4,0.2,0.8,0.5,1,0.8c0.2,0.2,0.4,0.5,0.5,0.8
	c0.5,1.3,0.1,2.8-1,3.7c-0.5,0.4-1.1,0.6-1.8,0.6C85.3,117.8,75.4,117.5,65.5,117.5L65.5,117.5z"/>
</svg>
