<?xml version="1.0" encoding="utf-8"?>
<!-- Generator: Adobe Illustrator 22.1.0, SVG Export Plug-In . SVG Version: 6.00 Build 0)  -->
<svg version="1.1" id="图层_1" xmlns="http://www.w3.org/2000/svg" xmlns:xlink="http://www.w3.org/1999/xlink" x="0px" y="0px"
	 viewBox="0 0 20 20" style="enable-background:new 0 0 20 20;" xml:space="preserve">
<style type="text/css">
	.st0{filter:url(#Adobe_OpacityMaskFilter);}
	.st1{fill:#FFFFFF;}
	.st2{mask:url(#mask-2_1_);fill:#FFFFFF;stroke:#FFFFFF;stroke-miterlimit:10;}
</style>
<title>life</title>
<desc>Created with Sketch.</desc>
<g id="Page-1">
	<g id="life">
		<g id="Rectangle">
		</g>
		<defs>
			<filter id="Adobe_OpacityMaskFilter" filterUnits="userSpaceOnUse" x="4.2" y="4.2" width="11.5" height="11.5">
				<feColorMatrix  type="matrix" values="1 0 0 0 0  0 1 0 0 0  0 0 1 0 0  0 0 0 1 0"/>
			</filter>
		</defs>
		<mask maskUnits="userSpaceOnUse" x="4.2" y="4.2" width="11.5" height="11.5" id="mask-2_1_">
			<g class="st0">
				<rect id="path-1_1_" class="st1" width="20" height="20"/>
			</g>
		</mask>
		<path id="Combined-Shape" class="st2" d="M8.8,8.8V7.2c0-0.8-0.7-1.5-1.5-1.5c-0.8,0-1.5,0.7-1.5,1.5c0,0.8,0.7,1.5,1.5,1.5H8.8z
			 M4.8,7.2c0-1.4,1.1-2.5,2.5-2.5c1.4,0,2.5,1.1,2.5,2.5v2.5H7.2C5.9,9.8,4.8,8.6,4.8,7.2z M4.8,12.8c0-1.4,1.1-2.5,2.5-2.5h2.5
			v2.5c0,1.4-1.1,2.5-2.5,2.5C5.9,15.2,4.8,14.1,4.8,12.8z M8.8,11.2H7.2c-0.8,0-1.5,0.7-1.5,1.5c0,0.8,0.7,1.5,1.5,1.5
			c0.8,0,1.5-0.7,1.5-1.5V11.2z M15.2,7.2c0,1.4-1.1,2.5-2.5,2.5h-2.5V7.2c0-1.4,1.1-2.5,2.5-2.5C14.1,4.8,15.2,5.9,15.2,7.2z
			 M11.2,8.8h1.5c0.8,0,1.5-0.7,1.5-1.5c0-0.8-0.7-1.5-1.5-1.5c-0.8,0-1.5,0.7-1.5,1.5V8.8z M15.2,12.8c0,1.4-1.1,2.5-2.5,2.5
			c-1.4,0-2.5-1.1-2.5-2.5v-2.5h2.5C14.1,10.2,15.2,11.4,15.2,12.8z M11.2,11.2v1.5c0,0.8,0.7,1.5,1.5,1.5c0.8,0,1.5-0.7,1.5-1.5
			c0-0.8-0.7-1.5-1.5-1.5H11.2z"/>
	</g>
</g>
</svg>
