<?xml version="1.0" standalone="no"?><!DOCTYPE svg PUBLIC "-//W3C//DTD SVG 1.1//EN" "http://www.w3.org/Graphics/SVG/1.1/DTD/svg11.dtd"><svg t="1522089601200" class="icon" style="" viewBox="0 0 1024 1024" version="1.1" xmlns="http://www.w3.org/2000/svg" p-id="6683" xmlns:xlink="http://www.w3.org/1999/xlink" width="200" height="200"><defs><style type="text/css"></style></defs><path d="M493.143695 598.746396C490.801428 598.618869 488.608863 598.281036 486.446239 597.339128 481.123743 595.02351 477.374273 590.020883 476.740916 584.389572 476.482968 582.100803 476.826131 579.970883 477.420335 577.764894L510.354868 476.974037C510.843128 475.694295 510.921434 475.349749 511.596246 474.146076 512.372396 472.761181 513.351219 471.615677 514.433683 470.45675L881.964646 113.449046C883.279725 112.299068 884.57177 111.27438 886.163219 110.486846 890.852365 108.166755 896.529536 108.166755 901.218682 110.486846 902.807827 111.27438 904.099878 112.299068 905.414957 113.449046L976.235712 182.246357C977.421818 183.526099 978.476646 184.78123 979.287341 186.324975 981.675674 190.88014 981.675674 196.395111 979.285037 200.950276 978.476646 202.494021 977.421818 203.749152 976.235712 205.028894L608.704753 562.036598C607.663745 562.953896 607.433434 563.224611 606.263452 563.992008 604.918433 564.875746 603.508927 565.45521 601.995781 565.998876L498.24279 597.992422C496.573032 598.415274 496.584548 598.413037 494.866425 598.66809 494.29295 598.694938 493.719474 598.721786 493.143695 598.746396L493.143695 598.746396ZM518.712869 557.879675 588.112609 536.479796 941.06025 193.636507 893.689798 147.621733 540.742156 490.462785C533.399828 512.934335 526.055197 535.405886 518.712869 557.879675L518.712869 557.879675Z" p-id="6684" fill="#b3b3b3"></path><path d="M906.879731 266.393858C902.708794 266.270806 898.936294 264.816554 895.81097 262.131781 871.402566 239.369379 847.466298 216.117007 824.032111 192.405986 822.224166 190.417016 820.872238 188.132722 820.181304 185.553103 818.18911 178.134179 822.039917 170.160403 829.184177 166.905116 831.024365 166.068362 833.018861 165.56273 835.043302 165.421779 837.070042 165.280828 839.11751 165.504559 841.061338 166.079548 843.463488 166.791013 845.589261 168.032721 847.463994 169.643585 871.874701 192.405986 895.808666 215.658358 919.242854 239.369379 920.749088 241.024989 921.946707 242.873009 922.699827 244.967132 925.224038 251.974389 922.342842 259.975013 915.871091 263.926104 913.743014 265.223745 911.384627 265.973244 908.904173 266.293179 908.227059 266.353587 907.559155 266.387146 906.879731 266.393858L906.879731 266.393858Z" p-id="6685" fill="#b3b3b3"></path><path d="M235.736138 876.600275C233.686367 876.479462 231.79551 876.266918 229.856288 875.553216 225.452734 873.928928 221.901331 870.481229 220.231574 866.203494 219.49688 864.31968 219.278084 862.482848 219.153716 860.491635L219.153716 219.029986C219.278084 217.038779 219.49688 215.201947 220.231574 213.318131 221.901331 209.040392 225.452734 205.592696 229.856288 203.968409 231.79551 203.254707 233.686367 203.042162 235.736138 202.921347L795.66926 202.921347C797.511751 203.03545 797.995405 202.979517 799.794137 203.429217 802.488781 204.10041 804.992266 205.438322 807.021309 207.288578 808.541364 208.675711 809.78735 210.34027 810.674049 212.172628 813.380207 217.76143 812.500418 224.540483 808.446937 229.299243 807.11804 230.860886 805.485132 232.17195 803.658763 233.147418 801.832393 234.122885 799.817168 234.758282 797.748972 235.013335 797.06034 235.096116 796.362497 235.098353 795.66926 235.138625L252.318561 235.138625 252.318561 844.383002 798.432996 844.383002 798.432996 356.244265 798.564274 354.226211C798.693249 353.563966 798.780767 352.892773 798.9535 352.239478 799.474004 350.277357 800.374522 348.415914 801.599779 346.775965 806.222129 340.596512 814.962447 338.417372 822.076767 341.670422 823.963018 342.531786 825.676534 343.742172 827.104465 345.218797 829.00914 347.18763 830.386403 349.621825 831.077337 352.239478 831.540263 353.986818 831.482685 354.454416 831.597841 356.244265L831.597841 860.491635C831.473473 862.482848 831.25698 864.31968 830.519983 866.203494 828.850226 870.481229 825.301126 873.928928 820.895269 875.553216 818.956047 876.266918 817.06519 876.479462 815.015419 876.600275L235.736138 876.600275 235.736138 876.600275Z" p-id="6686" fill="#b3b3b3"></path><path d="M335.138547 384.590995C333.922502 384.544011 333.613885 384.566384 332.409356 384.371738 329.247181 383.859394 326.266951 382.443176 323.908562 380.335629 319.115781 376.048941 317.34008 369.238567 319.454339 363.25376 320.048543 361.573539 320.930636 359.991761 322.052252 358.588967 323.176172 357.18841 324.537312 355.969076 326.068883 354.998083 328.424969 353.501322 331.002154 352.765246 333.770497 352.42965 430.229525 348.554627 526.854378 352.373717 623.396318 352.373717 624.612363 352.422938 624.923283 352.398328 626.125508 352.595211 629.287684 353.107555 632.267914 354.521535 634.626303 356.63132 635.973625 357.834993 637.10906 359.253448 637.979637 360.817329 638.850214 362.378972 639.451327 364.079328 639.753036 365.831142 640.823983 372.07324 637.919756 378.507746 632.465982 381.968866 630.109896 383.463389 627.535014 384.201702 624.766671 384.537299 528.30534 388.412321 431.680487 384.590995 335.138547 384.590995L335.138547 384.590995Z" p-id="6687" fill="#b3b3b3"></path><path d="M335.138547 493.122947C331.762181 493.013319 328.563156 492.169853 325.753356 490.294986 319.83205 486.346132 317.171953 478.907074 319.300031 472.242124 319.848172 470.528344 320.693414 468.904056 321.789697 467.458754 323.104775 465.724838 324.779139 464.252687 326.68842 463.154168 328.959292 461.847578 331.42132 461.19652 334.030749 460.941467 398.038899 458.863005 462.116141 460.90567 526.158837 460.90567 529.537506 461.015298 532.734228 461.861002 535.544028 463.733631 541.465334 467.684722 544.125431 475.123781 541.997354 481.78873 541.449212 483.50251 540.606273 485.124561 539.50999 486.569864 538.192609 488.306017 536.518245 489.77593 534.608963 490.87445 532.338093 492.181039 529.876063 492.832097 527.266636 493.08715 463.260789 495.165612 399.181243 493.122947 335.138547 493.122947L335.138547 493.122947Z" p-id="6688" fill="#b3b3b3"></path><path d="M335.138547 601.612391C332.485359 601.534085 329.942721 601.019504 327.565907 599.833729 325.525348 598.815752 323.708191 597.383874 322.261836 595.652195 317.607242 590.079053 317.358505 581.941954 321.665329 576.111521 322.621121 574.818356 323.774981 573.663903 325.076241 572.699622 327.738641 570.724077 330.845542 569.708337 334.15742 569.421962 384.814417 567.963235 435.519779 569.395114 486.199806 569.395114 488.852994 569.471183 491.395632 569.988001 493.772445 571.171539 495.813005 572.189516 497.630162 573.621395 499.076518 575.353073 500.108313 576.588068 500.951252 577.972964 501.566184 579.449589 504.34374 586.098877 502.135053 593.951839 496.262112 598.307883 493.599712 600.281191 490.492811 601.296931 487.183236 601.583306 436.523937 603.042033 385.820877 601.612391 335.138547 601.612391L335.138547 601.612391Z" p-id="6689" fill="#b3b3b3"></path></svg>