<?xml version="1.0" encoding="UTF-8"?>
<svg width="47px" height="22px" viewBox="0 0 47 22" version="1.1" xmlns="http://www.w3.org/2000/svg" xmlns:xlink="http://www.w3.org/1999/xlink">
    <!-- Generator: Sketch 42 (36781) - http://www.bohemiancoding.com/sketch -->
    <title>logo</title>
    <desc>Created with Sketch.</desc>
    <defs>
        <linearGradient x1="0%" y1="0%" x2="100%" y2="100%" id="linearGradient-1">
            <stop stop-color="#8876F6" offset="0%"></stop>
            <stop stop-color="#7D78F8" offset="32.8423948%"></stop>
            <stop stop-color="#3280FF" offset="100%"></stop>
        </linearGradient>
    </defs>
    <g id="Page-1" stroke="none" stroke-width="1" fill="none" fill-rule="evenodd">
        <g id="Artboard-5" transform="translate(-20.000000, -24.000000)" fill="url(#linearGradient-1)">
            <path d="M43.250202,36.3851624 L42.3789062,40.140625 L41.4551163,36.1425833 L37.1478155,35.5605156 L40.1376953,46 L44.6201172,46 L47.2381718,36.9240773 L43.250202,36.3851624 Z M43.9137419,33.52517 L45.9677734,24.671875 L50.7724609,24.671875 L48.3932425,32.9198321 L43.9137419,33.52517 Z M36.838714,34.4812549 L34.0292969,24.671875 L38.8046875,24.671875 L40.943092,33.9266092 L36.838714,34.4812549 Z M61.3193359,31.1730627 L61.3193359,28.2607422 L66.5927734,28.2607422 L66.5927734,24.671875 L51.8125,24.671875 L51.8125,28.2607422 L56.9980469,28.2607422 L56.9980469,31.7570207 L61.3193359,31.1730627 Z M61.3193359,38.8269373 L61.3193359,46 L56.9980469,46 L56.9980469,38.2429793 L61.3193359,38.8269373 Z M31.7294922,36.7714844 L25.0205078,36.7714844 L25.0205078,42.4257812 L32.9599609,42.4257812 L32.9599609,46 L20.7138672,46 L20.7138672,24.671875 L32.9306641,24.671875 L32.9306641,28.2607422 L25.0205078,28.2607422 L25.0205078,33.2998047 L31.7294922,33.2998047 L31.7294922,36.7714844 Z" id="Combined-Shape"></path>
        </g>
    </g>
</svg>