<?xml version="1.0" encoding="utf-8"?>
<!-- Generator: Adobe Illustrator 16.0.4, SVG Export Plug-In . SVG Version: 6.00 Build 0)  -->
<!DOCTYPE svg PUBLIC "-//W3C//DTD SVG 1.1//EN" "http://www.w3.org/Graphics/SVG/1.1/DTD/svg11.dtd">
<svg version="1.1" id="Capa_1" xmlns="http://www.w3.org/2000/svg" xmlns:xlink="http://www.w3.org/1999/xlink" x="0px" y="0px"
	 width="612px" height="792px" viewBox="0 0 612 792" enable-background="new 100 200 180 180" xml:space="preserve" fill="#900">
<path d="M411.785,176.66c-29.086-29.086-64.348-43.629-105.785-43.629c-41.438,0-76.699,14.543-105.785,43.629
	s-43.629,64.348-43.629,105.785c0,22.711,4.881,44.127,14.643,64.249s23.01,37.153,39.744,51.1L306,658.969l95.027-261.176
	c16.732-13.945,29.98-30.979,39.744-51.1c9.762-20.121,14.643-41.537,14.643-64.249C455.414,241.007,440.871,205.746,411.785,176.66
	z M335.584,312.029c-8.168,8.168-18.029,12.252-29.584,12.252c-11.555,0-21.416-4.084-29.584-12.252
	c-8.168-8.168-12.252-18.029-12.252-29.584c0-11.555,4.084-21.416,12.252-29.584s18.029-12.252,29.584-12.252
	c11.555,0,21.416,4.084,29.584,12.252s12.252,18.029,12.252,29.584C347.836,294,343.752,303.861,335.584,312.029z"/>
</svg>
