<?xml version="1.0" encoding="UTF-8"?>
<svg width="20px" height="20px" viewBox="0 0 20 20" version="1.1" xmlns="http://www.w3.org/2000/svg" xmlns:xlink="http://www.w3.org/1999/xlink">
    <!-- Generator: Sketch 42 (36781) - http://www.bohemiancoding.com/sketch -->
    <title>me</title>
    <desc>Created with Sketch.</desc>
    <defs>
        <rect id="path-1" x="0" y="0" width="20" height="20"></rect>
        <linearGradient x1="0%" y1="0%" x2="100%" y2="100%" id="linearGradient-3">
            <stop stop-color="#8876F6" offset="0%"></stop>
            <stop stop-color="#7D78F8" offset="32.8423948%"></stop>
            <stop stop-color="#3280FF" offset="100%"></stop>
        </linearGradient>
    </defs>
    <g id="Page-1" stroke="none" stroke-width="1" fill="none" fill-rule="evenodd">
        <g id="me">
            <mask id="mask-2" fill="white">
                <use xlink:href="#path-1"></use>
            </mask>
            <g id="Rectangle-4"></g>
            <path d="M9.5,11 L9.5,9 L10.5,9 L10.5,11 L12.5,11 L12.5,12 L10.5,12 L10.5,14 L9.5,14 L9.5,12 L7.5,12 L7.5,11 L9.5,11 Z M12,7 L12,6 C12,5.72217848 11.7784647,5.5 11.5001925,5.5 L8.49980749,5.5 C8.22216216,5.5 8,5.72161394 8,6 L8,7 L12,7 Z M7,7 L7,6 C7,5.16877536 7.67042973,4.5 8.49980749,4.5 L11.5001925,4.5 C12.3313995,4.5 13,5.17054169 13,6 L13,7 L14.0046024,7 C14.5543453,7 15,7.4463114 15,7.99754465 L15,15.0024554 C15,15.553384 14.5443356,16 14.0046024,16 L5.99539757,16 C5.44565467,16 5,15.5536886 5,15.0024554 L5,7.99754465 C5,7.44661595 5.4556644,7 5.99539757,7 L7,7 Z M6,8 L6,15 L14,15 L14,8 L6,8 Z" id="Combined-Shape" fill="url(#linearGradient-3)" fill-rule="nonzero" mask="url(#mask-2)"></path>
        </g>
    </g>
</svg>