<?xml version="1.0" encoding="UTF-8"?>
<svg width="22px" height="34px" viewBox="0 0 22 34" version="1.1" xmlns="http://www.w3.org/2000/svg" xmlns:xlink="http://www.w3.org/1999/xlink">
    <!-- Generator: Sketch 42 (36781) - http://www.bohemiancoding.com/sketch -->
    <title>POI</title>
    <desc>Created with Sketch.</desc>
    <defs></defs>
    <g id="Page-1" stroke="none" stroke-width="1" fill="none" fill-rule="evenodd">
        <g id="Artboard-5" transform="translate(-131.000000, 0.000000)" stroke="#FFFFFF" stroke-width="1" fill="#b9b9b9" fill-rule="nonzero">
            <path d="M152,10.8461965 C152,5.40866258 147.524898,1 141.999983,1 C136.477479,1 132,5.40866258 132,10.8461965 C132,12.6421476 132.497073,14.3193938 133.348628,15.7690819 L133.337891,15.7690819 L141.840775,32.6852362 C141.869866,32.7431699 141.929821,32.782857 141.99906,32.782857 C142.068264,32.782857 142.128253,32.7432045 142.157344,32.6852708 L150.664549,15.7690819 L150.652325,15.7690819 C151.506823,14.3193592 152,12.642113 152,10.8461965 M142.000938,15.7680888 C139.240215,15.7680888 137.000983,13.5635084 137.000983,10.8447431 C137.000983,8.12746587 139.240219,5.9218923 142.000938,5.9218923 C144.764636,5.9218923 147.000927,8.12746587 147.000927,10.8447431 C147.000965,13.5635084 144.764636,15.7680888 142.000938,15.7680888" id="Shape-Copy-6"></path>
        </g>
    </g>
</svg>