<?xml version="1.0" encoding="UTF-8"?>
<svg width="22px" height="34px" viewBox="0 0 22 34" version="1.1" xmlns="http://www.w3.org/2000/svg" xmlns:xlink="http://www.w3.org/1999/xlink">
    <!-- Generator: Sketch 42 (36781) - http://www.bohemiancoding.com/sketch -->
    <title>POIhighlight</title>
    <desc>Created with Sketch.</desc>
    <defs>
        <linearGradient x1="0%" y1="-8.85904237%" x2="100%" y2="95.1323714%" id="linearGradient-1">
            <stop stop-color="#FFDE28" offset="0%"></stop>
            <stop stop-color="#F8823F" offset="100%"></stop>
        </linearGradient>
    </defs>
    <g id="Page-1" stroke="none" stroke-width="1" fill="none" fill-rule="evenodd">
        <g id="Artboard-5" transform="translate(-157.000000, 0.000000)" stroke="#FFFFFF" fill-rule="nonzero" fill="url(#linearGradient-1)">
            <path d="M178,10.8461965 C178,5.40866258 173.524898,1 167.999983,1 C162.477479,1 158,5.40866258 158,10.8461965 C158,12.6421476 158.497073,14.3193938 159.348628,15.7690819 L159.337891,15.7690819 L167.840775,32.6852362 C167.869866,32.7431699 167.929821,32.782857 167.99906,32.782857 C168.068264,32.782857 168.128253,32.7432045 168.157344,32.6852708 L176.664549,15.7690819 L176.652325,15.7690819 C177.506823,14.3193592 178,12.642113 178,10.8461965 M168.000938,15.7680888 C165.240215,15.7680888 163.000983,13.5635084 163.000983,10.8447431 C163.000983,8.12746587 165.240219,5.9218923 168.000938,5.9218923 C170.764636,5.9218923 173.000927,8.12746587 173.000927,10.8447431 C173.000965,13.5635084 170.764636,15.7680888 168.000938,15.7680888" id="Shape-Copy-8"></path>
        </g>
    </g>
</svg>