<?xml version="1.0" encoding="utf-8"?>
<!-- Generator: Adobe Illustrator 16.0.0, SVG Export Plug-In . SVG Version: 6.00 Build 0)  -->
<!DOCTYPE svg PUBLIC "-//W3C//DTD SVG 1.1//EN" "http://www.w3.org/Graphics/SVG/1.1/DTD/svg11.dtd">
<svg version="1.1" id="图层_1" xmlns="http://www.w3.org/2000/svg" xmlns:xlink="http://www.w3.org/1999/xlink" x="0px" y="0px"
	 width="200px" height="200px" viewBox="0 0 200 200" enable-background="new 0 0 200 200" xml:space="preserve">
<circle fill="#FFFFFF" cx="100.225" cy="99.932" r="87.373"/>
<path fill="#683047" d="M131.25,104.98v-0.117c1.992-4.336,3.105-9.16,3.105-14.238c0-18.848-15.273-34.121-34.121-34.121
	S66.113,71.777,66.113,90.625c0,5.078,1.113,9.902,3.105,14.238v0.117c0,0,4.492,9.648,10.176,16.582
	c8.887,10.84,20.82,21.797,20.82,21.797s11.934-10.957,20.84-21.816C126.738,114.629,131.25,104.98,131.25,104.98z M100.215,106.133
	c-8.555,0-15.508-6.953-15.508-15.508s6.953-15.508,15.508-15.508s15.508,6.953,15.508,15.508S108.77,106.133,100.215,106.133z"/>
<path fill="#683047" d="M100.215,81.328c-5.137,0-9.316,4.16-9.316,9.297s4.16,9.297,9.316,9.297c5.137,0,9.297-4.16,9.297-9.297
	C109.531,85.488,105.352,81.328,100.215,81.328z"/>
<path fill="#683047" d="M100.215,32.559c-37.207,0-67.383,30.176-67.383,67.383s30.176,67.383,67.383,67.383
	s67.383-30.176,67.383-67.383S137.422,32.559,100.215,32.559z M78.516,149.57H66.113c-1.719,0-3.105-1.387-3.105-3.105
	s1.387-3.105,3.105-3.105h12.402c1.719,0,3.105,1.387,3.105,3.105C81.602,148.164,80.215,149.57,78.516,149.57z M134.336,143.359
	c1.719,0,3.105,1.387,3.105,3.105s-1.387,3.105-3.105,3.105h-34.121c-1.504,0-3.008-0.547-4.199-1.641
	c-0.508-0.469-12.363-11.387-21.445-22.441c-6.113-7.441-10.82-17.48-11.016-17.891c-0.117-0.254-0.215-0.527-0.293-0.781
	c-2.246-5.117-3.379-10.547-3.379-16.172c0-22.227,18.086-40.332,40.332-40.332c22.227,0,40.332,18.086,40.332,40.332
	c0,5.625-1.133,11.074-3.379,16.172c-0.078,0.273-0.176,0.527-0.293,0.781c-0.195,0.43-4.902,10.449-11.016,17.891
	c-5.605,6.816-12.246,13.574-16.641,17.871H134.336z"/>
<path fill="#683047" d="M100.215,12.559c-48.242,0-87.363,39.121-87.363,87.363s39.102,87.383,87.363,87.383
	s87.363-39.121,87.363-87.363S148.457,12.559,100.215,12.559z M157.754,157.48c-7.48,7.48-16.172,13.34-25.859,17.441
	c-10.02,4.238-20.684,6.387-31.68,6.387s-21.641-2.148-31.68-6.387c-9.688-4.102-18.398-9.961-25.859-17.441
	c-7.48-7.48-13.34-16.172-17.441-25.859c-4.238-10.02-6.387-20.684-6.387-31.68s2.148-21.641,6.387-31.68
	c4.102-9.688,9.961-18.398,17.441-25.859s16.172-13.34,25.859-17.441c10.039-4.238,20.684-6.406,31.68-6.406
	s21.641,2.148,31.68,6.387c9.688,4.102,18.398,9.961,25.859,17.441s13.34,16.172,17.441,25.859
	c4.238,10.039,6.387,20.703,6.387,31.699s-2.148,21.641-6.387,31.68C171.094,141.309,165.234,150.02,157.754,157.48z"/>
</svg>
