<?xml version="1.0" standalone="no"?><!DOCTYPE svg PUBLIC "-//W3C//DTD SVG 1.1//EN" "http://www.w3.org/Graphics/SVG/1.1/DTD/svg11.dtd"><svg class="icon" width="200px" height="200.00px" viewBox="0 0 1024 1024" version="1.1" xmlns="http://www.w3.org/2000/svg"><path fill="#1FAFED" d="M871.424 819.785143L667.355429 620.251429c102.692571-127.268571 82.797714-313.636571-44.324572-416.475429-52.662857-42.569143-118.345143-65.682286-186.075428-65.682286C273.408 138.093714 140.873143 270.628571 140.873143 434.176c0 78.555429 31.158857 153.892571 86.747428 209.334857 103.131429 103.131429 266.093714 115.858286 384 29.842286l205.970286 201.435428c15.36 14.628571 39.789714 14.043429 54.418286-1.316571 14.336-14.921143 14.189714-38.912-0.585143-53.686857zM192.219429 434.176c0-134.875429 109.860571-244.736 244.736-244.736s244.736 109.860571 244.736 244.736-109.860571 244.736-244.736 244.736S192.219429 569.051429 192.219429 434.176z" /></svg>