<?xml version="1.0" encoding="UTF-8"?>
<svg width="35px" height="35px" viewBox="0 0 35 35" version="1.1" xmlns="http://www.w3.org/2000/svg" xmlns:xlink="http://www.w3.org/1999/xlink">
    <!-- Generator: Sketch 42 (36781) - http://www.bohemiancoding.com/sketch -->
    <title>remove</title>
    <desc>Created with Sketch.</desc>
    <defs>
        <linearGradient x1="0%" y1="0%" x2="100%" y2="100%" id="linearGradient-1">
            <stop stop-color="#8876F6" offset="0%"></stop>
            <stop stop-color="#7D78F8" offset="32.8423948%"></stop>
            <stop stop-color="#3280FF" offset="100%"></stop>
        </linearGradient>
    </defs>
    <g id="Page-1" stroke="none" stroke-width="1" fill="none" fill-rule="evenodd">
        <g id="Artboard-5" transform="translate(0.000000, -25.000000)" fill-rule="nonzero" fill="url(#linearGradient-1)">
            <path d="M24.6716709,35.3333333 L24.6675139,35.3333333 C24.6685801,35.3318911 24.6704225,35.3333333 24.6716709,35.3333333 Z M23.3346341,35.3333333 L22.0108502,34 L24.6716709,34 C25.4052868,34 26,34.5928589 26,35.3379114 L26,38.0179266 L24.6666667,36.6749749 L24.6666667,35.3379114 C24.6666667,35.335393 23.3346341,35.3333333 23.3346341,35.3333333 Z M24.6666667,47.3439685 L26,46.005539 L26,48.6699023 C26,49.404495 25.4128477,50 24.6749668,50 L22.0207482,50 L23.3490048,48.6666667 L24.6666667,48.6666667 L24.6666667,47.3439685 Z M12.6718736,48.6666667 L14.0111001,50 L11.3356383,50 C10.5979856,50 10,49.4107528 10,48.6702391 L10,46.0065505 L11.3333333,47.3340166 L11.3333333,48.6669719 C11.3338416,48.6667824 12.6718736,48.6666667 12.6718736,48.6666667 Z M11.3333333,36.6647812 L10,37.9901111 L10,35.3286492 C10,34.5948565 10.59231,34 11.3366727,34 L14.0142068,34 L12.6728217,35.3333333 L11.3366727,35.3333333 C11.3350069,35.3333333 11.3333333,36.6647812 11.3333333,36.6647812 Z M14,42.6666667 L14,41.3333333 L22,41.3333333 L22,42.6666667 L14,42.6666667 Z" id="Combined-Shape"></path>
        </g>
    </g>
</svg>