<?xml version="1.0" encoding="utf-8"?>
<!-- Generator: Adobe Illustrator 22.1.0, SVG Export Plug-In . SVG Version: 6.00 Build 0)  -->
<svg version="1.1" id="图层_1" xmlns="http://www.w3.org/2000/svg" xmlns:xlink="http://www.w3.org/1999/xlink" x="0px" y="0px"
	 viewBox="0 0 200 200" style="enable-background:new 0 0 200 200;" xml:space="preserve">
<style type="text/css">
	.st0{fill:#FFFFFF;stroke:#FFFFFF;stroke-width:2;stroke-miterlimit:10;}
</style>
<path class="st0" d="M142.7,92.3L113,132.2L69.7,61.1L0.3,154.4l13.6,10.1l54.5-73.2l44.1,72.5l14.5-8.8l-4.4-7.2l18.8-25.2
	l44.1,72.5l14.5-8.8L142.7,92.3z M162.3,63.2c16.3,0,29.6-13.3,29.6-29.6c0-16.3-13.3-29.6-29.6-29.6c-16.3,0-29.6,13.3-29.6,29.6
	C132.7,49.9,146,63.2,162.3,63.2z M162.3,21c7,0,12.7,5.7,12.7,12.7s-5.7,12.7-12.7,12.7s-12.7-5.7-12.7-12.7S155.3,21,162.3,21z"/>
</svg>
