<?xml version="1.0" encoding="utf-8"?>
<!-- Generator: Adobe Illustrator 22.1.0, SVG Export Plug-In . SVG Version: 6.00 Build 0)  -->
<svg version="1.1" id="图层_1" xmlns="http://www.w3.org/2000/svg" xmlns:xlink="http://www.w3.org/1999/xlink" x="0px" y="0px"
	 viewBox="0 0 20 20" style="enable-background:new 0 0 20 20;" xml:space="preserve">
<style type="text/css">
	.st0{filter:url(#Adobe_OpacityMaskFilter);}
	.st1{fill:#FFFFFF;}
	.st2{mask:url(#mask-2_1_);fill:#FFFFFF;}
</style>
<title>scenicspot</title>
<desc>Created with Sketch.</desc>
<g id="Page-1">
	<g id="scenicspot">
		<g id="Rectangle">
		</g>
		<defs>
			<filter id="Adobe_OpacityMaskFilter" filterUnits="userSpaceOnUse" x="3.6" y="4" width="12.7" height="12">
				<feColorMatrix  type="matrix" values="1 0 0 0 0  0 1 0 0 0  0 0 1 0 0  0 0 0 1 0"/>
			</filter>
		</defs>
		<mask maskUnits="userSpaceOnUse" x="3.6" y="4" width="12.7" height="12" id="mask-2_1_">
			<g class="st0">
				<rect id="path-1_1_" class="st1" width="20" height="20"/>
			</g>
		</mask>
		<path id="Combined-Shape" class="st2" d="M15.7,10c-0.1,0.2-0.4,0.3-0.7,0.2c-0.2-0.1-0.3-0.4-0.2-0.7c0.3-0.5,0.4-1,0.4-1.5
			c0-1.7-1.3-3-3-3c-1.1,0-2,0.6-2.6,1.4C9.5,6.7,9.2,6.7,9,6.6S8.7,6.1,8.8,5.9c0.7-1.2,2-1.9,3.4-1.9c2.2,0,4,1.8,4,4
			C16.3,8.7,16.1,9.4,15.7,10z M4.8,14c-0.3,0-0.5-0.2-0.5-0.5S4.5,13,4.8,13h10c0.3,0,0.5,0.2,0.5,0.5S15,14,14.8,14H4.8z
			 M10.9,11.5L7.8,7.2l-3.2,5.2c-0.1,0.2-0.5,0.3-0.7,0.2c-0.2-0.1-0.3-0.5-0.2-0.7L7.3,6c0.2-0.3,0.6-0.3,0.8,0l3.2,4.4l1.3-1.7
			c0.2-0.3,0.6-0.3,0.8,0l2.3,3.1c0.2,0.2,0.1,0.5-0.1,0.7c-0.2,0.2-0.5,0.1-0.7-0.1L13,9.8l-1.3,1.7C11.5,11.8,11.1,11.8,10.9,11.5
			z M6.8,16c-0.3,0-0.5-0.2-0.5-0.5S6.5,15,6.8,15h6c0.3,0,0.5,0.2,0.5,0.5S13,16,12.8,16H6.8z"/>
	</g>
</g>
</svg>
