<?xml version="1.0" encoding="utf-8"?>
<!-- Generator: Adobe Illustrator 22.1.0, SVG Export Plug-In . SVG Version: 6.00 Build 0)  -->
<svg version="1.1" id="图层_1" xmlns="http://www.w3.org/2000/svg" xmlns:xlink="http://www.w3.org/1999/xlink" x="0px" y="0px"
	 viewBox="0 0 20 20" style="enable-background:new 0 0 20 20;" xml:space="preserve">
<style type="text/css">
	.st0{filter:url(#Adobe_OpacityMaskFilter);}
	.st1{fill:#FFFFFF;}
	.st2{mask:url(#mask-2_1_);fill:#FFFFFF;stroke:#FFFFFF;stroke-miterlimit:10;}
</style>
<title>shop</title>
<desc>Created with Sketch.</desc>
<g id="Page-1">
	<g id="shop">
		<g id="Rectangle">
		</g>
		<defs>
			<filter id="Adobe_OpacityMaskFilter" filterUnits="userSpaceOnUse" x="5" y="3.5" width="10" height="12.5">
				<feColorMatrix  type="matrix" values="1 0 0 0 0  0 1 0 0 0  0 0 1 0 0  0 0 0 1 0"/>
			</filter>
		</defs>
		<mask maskUnits="userSpaceOnUse" x="5" y="3.5" width="10" height="12.5" id="mask-2_1_">
			<g class="st0">
				<rect id="path-1_1_" class="st1" width="20" height="20"/>
			</g>
		</mask>
		<path id="Combined-Shape" class="st2" d="M6.8,6.5h6.4c0.3,0,0.5,0.2,0.5,0.5l0.8,8c0,0.3-0.2,0.5-0.5,0.5H6
			c-0.3,0-0.5-0.3-0.5-0.6l0.8-8C6.3,6.7,6.6,6.5,6.8,6.5z M6.6,14.5h6.9l-0.7-7H7.3L6.6,14.5z M8.2,9.5c-0.4,0-0.8-0.3-0.8-0.8
			S7.8,8,8.2,8C8.7,8,9,8.3,9,8.8S8.7,9.5,8.2,9.5z M11.8,9.5c0.4,0,0.8-0.3,0.8-0.8S12.2,8,11.8,8S11,8.3,11,8.8S11.3,9.5,11.8,9.5
			z M10,5C9.3,5,8.7,5.5,8.5,6.1l-1,0C7.7,4.9,8.7,4,10,4c1.3,0,2.3,0.9,2.5,2.1l-1,0C11.3,5.5,10.7,5,10,5z"/>
	</g>
</g>
</svg>
