<?xml version="1.0" encoding="utf-8"?>
<!-- Generator: Adobe Illustrator 22.1.0, SVG Export Plug-In . SVG Version: 6.00 Build 0)  -->
<svg version="1.1" id="图层_1" xmlns="http://www.w3.org/2000/svg" xmlns:xlink="http://www.w3.org/1999/xlink" x="0px" y="0px"
	 viewBox="0 0 200 200" style="enable-background:new 0 0 200 200;" xml:space="preserve">
<style type="text/css">
	.st0{fill:#FFFFFF;stroke:#FFFFFF;stroke-width:2;stroke-miterlimit:10;}
</style>
<path class="st0" d="M149.9,129.9H49.5c-1.8,0-3.5-0.8-4.5-2.2L15,87c-1.1-1.5-1.3-3.6-0.3-5.2c0.9-1.7,2.8-2.7,4.8-2.7h130.5
	c3,0,5.4,2.3,5.4,5.1v40.7C155.4,127.7,152.9,129.9,149.9,129.9z M52.4,119.8h92.1V89.2H29.8L52.4,119.8z"/>
<path class="st0" d="M143.5,151.3H62.9c-3,0-5.4-2.3-5.4-5.1c0-2.8,2.4-5.1,5.4-5.1h75.1l0-15.3c0-2.8,2.4-5.1,5.4-5.1c0,0,0,0,0,0
	c3,0,5.4,2.3,5.4,5l0.1,20.4c0,1.3-0.6,2.6-1.6,3.6C146.4,150.7,145,151.3,143.5,151.3z"/>
<path class="st0" d="M149.9,88.4c-3,0-5.4-2.3-5.4-5.1V58.7c0-2.4,1.8-4.5,4.4-5l32.6-5.9c3-0.6,5.8,1.3,6.4,4
	c0.6,2.7-1.4,5.4-4.3,5.9l-28.2,5.1v20.5C155.4,86.1,152.9,88.4,149.9,88.4z"/>
<path class="st0" d="M62.2,174.2c-9.5,0-17.3-7.4-17.3-16.5c0-9.1,7.8-16.5,17.3-16.5c9.5,0,17.3,7.4,17.3,16.5
	C79.5,166.8,71.8,174.2,62.2,174.2z M62.2,151.3c-3.5,0-6.4,2.9-6.4,6.4c0,3.5,2.9,6.4,6.4,6.4c3.5,0,6.4-2.9,6.4-6.4
	C68.7,154.1,65.8,151.3,62.2,151.3z"/>
<path class="st0" d="M138.8,174.2c-9.5,0-17.3-7.4-17.3-16.5c0-9.1,7.8-16.5,17.3-16.5c9.5,0,17.3,7.4,17.3,16.5
	C156.1,166.8,148.4,174.2,138.8,174.2z M138.8,151.3c-3.5,0-6.4,2.9-6.4,6.4c0,3.5,2.9,6.4,6.4,6.4c3.5,0,6.4-2.9,6.4-6.4
	C145.2,154.1,142.4,151.3,138.8,151.3z"/>
</svg>
