<?xml version="1.0" encoding="utf-8"?>
<!-- Generator: Adobe Illustrator 22.1.0, SVG Export Plug-In . SVG Version: 6.00 Build 0)  -->
<svg version="1.1" id="图层_1" xmlns="http://www.w3.org/2000/svg" xmlns:xlink="http://www.w3.org/1999/xlink" x="0px" y="0px"
	 viewBox="0 0 200 200" style="enable-background:new 0 0 200 200;" xml:space="preserve">
<style type="text/css">
	.st0{fill:#FFFFFF;stroke:#FFFFFF;stroke-width:2;stroke-miterlimit:10;}
</style>
<path class="st0" d="M151,55.9c9.2,0,16.7-7.5,16.7-16.7s-7.5-16.7-16.7-16.7c-9.2,0-16.7,7.5-16.7,16.7S141.8,55.9,151,55.9z
	 M151,68.4c-16.1,0-29.2-13.1-29.2-29.2s13.1-29.2,29.2-29.2s29.2,13.1,29.2,29.2C180.2,55.4,167.1,68.4,151,68.4L151,68.4z
	 M71.9,28.1l1.5-1.5c1.6-1.6,4.3-1.6,5.9,0l79.5,79.5l23.6-23.6c1.6-1.6,4.3-1.6,5.9,0l2.9,2.9c1.6,1.6,1.6,4.3,0,5.9l-29.5,29.5
	c-0.8,0.8-1.8,1.2-2.9,1.2c-1.1,0-2.2-0.4-2.9-1.2l-38.3-38.3L94,106.2l38.3,38.3c0.8,0.8,1.2,1.8,1.2,2.9c0,1.1-0.4,2.1-1.2,2.9
	L94,188.7c-1.6,1.6-4.3,1.6-5.9,0l-2.9-2.9c-1.6-1.6-1.6-4.3,0-5.9l32.4-32.4L85.2,115l-67.6,67.6c-1.6,1.6-4.2,1.6-5.9,0l-3-3
	c-1.6-1.6-1.6-4.3,0-5.9l100-100L76.3,41.4L52.8,64.9c-1.6,1.6-4.3,1.6-5.9,0L43.9,62c-1.6-1.6-1.6-4.3,0-5.9
	C43.9,56.1,71.9,28.1,71.9,28.1z"/>
</svg>
