<?xml version="1.0" encoding="utf-8"?>
<!-- Generator: Adobe Illustrator 22.1.0, SVG Export Plug-In . SVG Version: 6.00 Build 0)  -->
<svg version="1.1" id="图层_1" xmlns="http://www.w3.org/2000/svg" xmlns:xlink="http://www.w3.org/1999/xlink" x="0px" y="0px"
	 viewBox="0 0 200 200" style="enable-background:new 0 0 200 200;" xml:space="preserve">
<style type="text/css">
	.st0{fill:#FFFFFF;stroke:#FFFFFF;stroke-width:2;stroke-miterlimit:10;}
</style>
<path class="st0" d="M108.6,140.6l-29.4-5.8c0.4-3.3,0.7-6.4,0.9-9.4l20.2-13.5C103.6,121.3,106.4,130.9,108.6,140.6L108.6,140.6z
	 M84.5,79.2l-9.9,6.7c0.9,2.3,1.8,4.7,2.5,7.3l17,3.3c-2.7-5.8-5.7-11.4-9.2-16.6C84.7,79.7,84.6,79.5,84.5,79.2z M99.3,109.3
	c-1.2-3.3-2.5-6.5-3.9-9.7l-17.6-3.5c1.8,7.4,2.8,16,2.5,25.9C80.3,122.1,99.3,109.3,99.3,109.3z M48.6,63.4
	c-0.3,0.9-0.5,1.9-0.5,2.9c0,3.2,1.8,6,4.5,7.4c-0.3,1-0.5,2-0.5,3c0,5.9,4.8,10.7,10.7,10.7c4.1,0,7.9-2.4,9.7-6.2
	c0.3,0.7,0.7,1.4,1,2.1l9.9-6.6c-0.1-0.3-0.3-0.7-0.5-1c-0.6-1.3-1.2-2.6-1.6-3.9c1.2,0.7,2.6,1.1,4.1,1.1c4.6,0,8.4-3.8,8.4-8.4
	c0-4.6-3.8-8.4-8.4-8.4c-2.2,0-4.4,0.9-6,2.5c0.9-12.3,9.1-23.3,21.7-29.5c11.3-5.5,24.6-4.9,35.4,1.6
	C126.2,16.4,106.7,11,90.3,19.1C81,23.6,74,31.8,71.1,41.7c0-7.1,1.9-13.4,7.4-19.1c9.6-10.1,24-14,37.4-10
	C102.2,1.1,82,0.9,68,12.9c-7.7,6.6-12.3,16.1-12.8,26.2C48.6,29.2,36.5,24,24.3,26.9c-14,3.3-23.2,16.3-22.2,30.2
	c3.3-9.3,11-16.3,20.6-18.6c11.7-2.8,24,1.9,30.7,11.9c-9.7-3.8-20.6-3.4-29.9,1.2C7.1,59.7-0.7,78.4,4.4,95.4
	c2.3-20.3,20.6-34.8,40.9-32.5C46.4,63,47.5,63.2,48.6,63.4z M122.6,164.5l13.6-2.7c-0.2-1.5-0.3-3-0.4-4.4l-9.3-6.3
	C124.9,155.5,123.6,160,122.6,164.5L122.6,164.5z M138.4,139.1l-4.6-3.1c-0.1,0.2-0.1,0.3-0.2,0.3c-1.6,2.5-3,5-4.3,7.7l7.9-1.6
	C137.6,141.3,138,140.2,138.4,139.1z M128.7,145.5c-0.7,1.5-1.3,3-1.8,4.5l8.8,5.9c-0.1-4.6,0.3-8.6,1.2-12L128.7,145.5L128.7,145.5
	z M119.2,105.1c6.2-1.8,12.9,0,17.3,4.7c2.5,2.7,3.4,5.6,3.4,8.9c-1.4-4.6-4.6-8.4-8.9-10.5c-7.5-3.7-16.6-1.4-21.5,5.4
	c5-3,11.2-3.3,16.4-0.7c5.9,2.9,9.7,8,10.1,13.7c-1.5-1.5-4-1.6-5.5-0.1c-1.5,1.5-1.6,4-0.1,5.5c0.7,0.8,1.8,1.2,2.8,1.2
	c0.7,0,1.3-0.2,1.9-0.5c-0.2,0.6-0.4,1.2-0.7,1.8c-0.1,0.2-0.1,0.3-0.2,0.5l4.6,3.1c0.1-0.3,0.3-0.6,0.5-1c1.1,2.5,4.1,3.6,6.6,2.4
	c1.8-0.8,2.9-2.6,2.9-4.5c0-0.5-0.1-1-0.2-1.4c1.3-0.7,2.1-2,2.1-3.4c0-0.5-0.1-0.9-0.3-1.3c3.7-0.8,7.6-0.3,11.1,1.4
	c5.2,2.6,8.8,7.6,9.5,13.4c2.4-8-1.3-16.6-8.9-20.3c-4.3-2.1-9.4-2.4-13.9-0.6c3.1-4.6,8.8-6.8,14.3-5.5c4.4,1.1,8.1,4.3,9.6,8.6
	c0.5-7.4-5.1-13.8-12.6-14.3c-4.8-0.3-9.4,2-12.1,6c-0.2-4.7-2.4-9.1-5.9-12.1C135,99.8,125.7,99.7,119.2,105.1L119.2,105.1z
	 M140.6,179.2c-2.1-6-3.5-11.4-4.2-16.1l-14.1,2.8c-0.3,1.4-0.6,2.8-0.9,4.2l13.4,9l-2.3-0.1l-11.3-7.6c-0.5,2.8-0.9,5.3-1.2,7.4
	c-1.6,0-3.3,0-4.9,0c-0.9-7.8-2-15.6-3.4-23.3l-35.8,24c-1.8,0.1-3.5,0.2-5.2,0.3l40.4-27.2c-0.6-3-1.2-6-1.8-9l-30.4-6
	c-1.8,12.3-5.6,26.4-11.9,42.3c-26.2,1.5-43.9,4.3-43.9,7.5c0,4.8,39.2,8.7,87.5,8.7c48.3,0,87.5-3.9,87.5-8.7
	C198,183.6,174.1,180.4,140.6,179.2L140.6,179.2z"/>
</svg>
