<?xml version="1.0" encoding="utf-8"?>
<!-- Generator: Adobe Illustrator 22.1.0, SVG Export Plug-In . SVG Version: 6.00 Build 0)  -->
<svg version="1.1" id="图层_1" xmlns="http://www.w3.org/2000/svg" xmlns:xlink="http://www.w3.org/1999/xlink" x="0px" y="0px"
	 viewBox="0 0 200 200" style="enable-background:new 0 0 200 200;" xml:space="preserve">
<style type="text/css">
	.st0{fill:#FFFFFF;stroke:#FFFFFF;stroke-width:2;stroke-miterlimit:10;}
</style>
<path class="st0" d="M166.7,83.3h-25v-9.2c14.2-3.3,25-16.7,25-32.5h-25v-8.3c0-5-3.3-8.3-8.3-8.3H66.7c-5,0-8.3,3.3-8.3,8.3v8.3
	h-25c0,15.8,10.8,28.3,25,32.5v9.2h-25c0,15.8,10.8,28.3,25,32.5v9.2h-25c0,15.8,10.8,28.3,25,32.5v9.2c0,5,3.3,8.3,8.3,8.3h66.7
	c5,0,8.3-3.3,8.3-8.3v-9.2c14.2-3.3,25-16.7,25-32.5h-25v-9.2C155.8,111.7,166.7,99.2,166.7,83.3L166.7,83.3z M100,158.3
	c-9.2,0-16.7-7.5-16.7-16.7S90.8,125,100,125s16.7,7.5,16.7,16.7S109.2,158.3,100,158.3z M100,116.7c-9.2,0-16.7-7.5-16.7-16.7
	s7.5-16.7,16.7-16.7s16.7,7.5,16.7,16.7S109.2,116.7,100,116.7z M100,75c-9.2,0-16.7-7.5-16.7-16.7s7.5-16.7,16.7-16.7
	s16.7,7.5,16.7,16.7S109.2,75,100,75z"/>
</svg>
