<?xml version="1.0" encoding="utf-8"?>
<!-- Generator: Adobe Illustrator 22.1.0, SVG Export Plug-In . SVG Version: 6.00 Build 0)  -->
<svg version="1.1" id="图层_1" xmlns="http://www.w3.org/2000/svg" xmlns:xlink="http://www.w3.org/1999/xlink" x="0px" y="0px"
	 viewBox="0 0 20 20" style="enable-background:new 0 0 20 20;" xml:space="preserve">
<style type="text/css">
	.st0{filter:url(#Adobe_OpacityMaskFilter);}
	.st1{fill:#FFFFFF;}
	.st2{mask:url(#mask-2_1_);fill:#FFFFFF;stroke:#FFFFFF;stroke-miterlimit:10;}
</style>
<title>traffic</title>
<desc>Created with Sketch.</desc>
<g id="Page-1">
	<g id="traffic">
		<g id="Rectangle-31">
		</g>
		<defs>
			<filter id="Adobe_OpacityMaskFilter" filterUnits="userSpaceOnUse" x="3.5" y="5" width="13.1" height="10">
				<feColorMatrix  type="matrix" values="1 0 0 0 0  0 1 0 0 0  0 0 1 0 0  0 0 0 1 0"/>
			</filter>
		</defs>
		<mask maskUnits="userSpaceOnUse" x="3.5" y="5" width="13.1" height="10" id="mask-2_1_">
			<g class="st0">
				<rect id="path-1_1_" class="st1" width="20" height="20"/>
			</g>
		</mask>
		<path id="Combined-Shape" class="st2" d="M12.6,7.5c-1.1-0.6-2.3-1-3.5-1c-2.9,0-3.1,0-3.7,0h0.2l0,5c0,0,0.2,0,1.2,0H13
			c2,0,2.5-0.8,1.7-2h-3.2v-2H12.6z M4.5,14.5C4.2,14.5,4,14.3,4,14s0.2-0.5,0.5-0.5h11c0.3,0,0.5,0.2,0.5,0.5s-0.2,0.5-0.5,0.5H4.5
			z M9.1,5.5c2.5,0,5.1,1.4,6.3,3.2c1.4,2,0.5,3.8-2.4,3.8H9.2H5c-0.3,0-0.5-0.2-0.5-0.5l0-6c0-0.3,0.2-0.5,0.5-0.5H9.1z M9,7.5h1.5
			v2H9V7.5z M6.5,7.5H8v2H6.5V7.5z"/>
	</g>
</g>
</svg>
