<?xml version="1.0" encoding="utf-8"?>
<!-- Generator: Adobe Illustrator 22.1.0, SVG Export Plug-In . SVG Version: 6.00 Build 0)  -->
<svg version="1.1" id="图层_1" xmlns="http://www.w3.org/2000/svg" xmlns:xlink="http://www.w3.org/1999/xlink" x="0px" y="0px"
	 viewBox="0 0 20 20" style="enable-background:new 0 0 20 20;" xml:space="preserve">
<style type="text/css">
	.st0{filter:url(#Adobe_OpacityMaskFilter);}
	.st1{fill:#FFFFFF;}
	.st2{mask:url(#mask-2_1_);fill:#FFFFFF;stroke:#FFFFFF;stroke-miterlimit:10;}
</style>
<title>uptown</title>
<desc>Created with Sketch.</desc>
<g id="Page-1">
	<g id="uptown">
		<g id="Rectangle">
		</g>
		<defs>
			<filter id="Adobe_OpacityMaskFilter" filterUnits="userSpaceOnUse" x="3.5" y="4.3" width="13.6" height="12.2">
				<feColorMatrix  type="matrix" values="1 0 0 0 0  0 1 0 0 0  0 0 1 0 0  0 0 0 1 0"/>
			</filter>
		</defs>
		<mask maskUnits="userSpaceOnUse" x="3.5" y="4.3" width="13.6" height="12.2" id="mask-2_1_">
			<g class="st0">
				<rect id="path-1_1_" class="st1" width="20" height="20"/>
			</g>
		</mask>
		<path id="Combined-Shape" class="st2" d="M14,13.4V15h1.5c0.3,0,0.5,0.2,0.5,0.5S15.8,16,15.5,16h-11C4.2,16,4,15.8,4,15.5
			S4.2,15,4.5,15H13v-1.6h-1.8c-0.1,0-0.1-0.1-0.1-0.2l1.3-1.8h-1l2-3.4l2,3.4h-1l1.5,2H14z M12.5,6.5H15c0.3,0,0.5,0.2,0.5,0.5v2.2
			c0,0.3-0.2,0.5-0.5,0.5c-0.3,0-0.5-0.2-0.5-0.5V7.5h-2V9c0,0.3-0.2,0.5-0.5,0.5S11.5,9.3,11.5,9V5.8h-6V13c0,0.3-0.2,0.5-0.5,0.5
			S4.5,13.3,4.5,13V5.3C4.5,5,4.7,4.8,5,4.8h7c0.3,0,0.5,0.2,0.5,0.5V6.5z M6,7h2v1H6V7z M6,9h2v1H6V9z M6,11h2v1H6V11z M9,7h2v1H9
			V7z M9,9h2v1H9V9z M9,11h2v1H9V11z"/>
	</g>
</g>
</svg>
