<?xml version="1.0" encoding="utf-8"?>
<!-- Generator: Adobe Illustrator 22.1.0, SVG Export Plug-In . SVG Version: 6.00 Build 0)  -->
<svg version="1.1" id="图层_1" xmlns="http://www.w3.org/2000/svg" xmlns:xlink="http://www.w3.org/1999/xlink" x="0px" y="0px"
	 viewBox="0 0 200 200" style="enable-background:new 0 0 200 200;" xml:space="preserve">
<style type="text/css">
	.st0{fill:#FFFFFF;stroke:#FFFFFF;stroke-width:2;stroke-miterlimit:10;}
</style>
<path class="st0" d="M72,134.9h19.4v-22.6H72V134.9L72,134.9z M129.1,134.9h19.4v-22.6h-19.4V134.9L129.1,134.9z M164.6,69.2
	l4.3,30.8v5.6h-5.1v22c-2.4,0.1-4.6,0.8-6.5,1.8l0-23.8h-29.7l-17.4-21.8l-17.4,21.8H63v43h37.8v-36.4h18.7v36.4h24
	c0-0.1,0-0.2,0-0.4c0-6,4.8-10.9,10.8-11.2c2.9-4.2,7.7-6.9,13.1-6.9c6,0,11.3,3.4,14,8.4c0.3,0,0.5,0,0.8,0
	c6.1,0,11.2,4.3,12.4,10.1h3.4v6.6H16.3v-6.6h11l3.9-2.5l2.9-6.6l1.1-5.7l-0.8-2c-7,0-15.4,0.1-18.1-7.2c-0.8-2.1-2.2-3.1-5.2-5.5
	c-5.9-4.6-6.3-7.9-8-14.6c-0.6-2.3-0.8-4.4-0.6-5.8c1.1-5.7-0.2-5-1-9.6c-2-9.4,2.9-21.7,8.7-27.8c2.7-2.9,4.1-3.3,5.9-5.1
	c0.6-0.5,1-1.5,2.9-4.3c5.4-4.2,13.6-8.5,22.7-8.7c5.9-0.1,11.4,2.5,16.4,4.7c4.4,2.4,2.4,1.8,8.4,2.8c8.5,1.3,15.7,7.9,19.6,14.7
	l-30.3,0h-3.4l-4.8,34.4v9.8h5.1v22.3c-1.6-0.3-3.5-0.8-5-1.1l-1.8,0.1l-0.1,1.3l0.1,4l1.6,8l3.6,4.5h5.6l0-43h-5.1V100l4.3-30.8
	C91.1,69.2,89.4,69.2,164.6,69.2z"/>
</svg>
