<?xml version="1.0" standalone="no"?><!DOCTYPE svg PUBLIC "-//W3C//DTD SVG 1.1//EN" "http://www.w3.org/Graphics/SVG/1.1/DTD/svg11.dtd"><svg t="1551509052026" class="icon" style="" viewBox="0 0 1024 1024" version="1.1" xmlns="http://www.w3.org/2000/svg" p-id="1772" xmlns:xlink="http://www.w3.org/1999/xlink" width="200" height="200"><defs><style type="text/css"></style></defs><path d="M951.5 315.2v-240h-240v95h-399v-95h-240v240h95v393.6h-95v240h240v-95h399v95h240v-240h-95V315.2h95z m-190-190h140v140h-140v-140z m-639 140v-140h140v140h-140z m140 633.6h-140v-140h140v140z m639-140v140h-140v-140h140z m-95-50h-95v95h-399v-95h-95V315.2h95v-95h399v95h95v393.6z" fill="#515151" p-id="1773"></path></svg>