<?xml version="1.0" standalone="no"?><!DOCTYPE svg PUBLIC "-//W3C//DTD SVG 1.1//EN" "http://www.w3.org/Graphics/SVG/1.1/DTD/svg11.dtd"><svg t="1547709527934" class="icon" style="" viewBox="0 0 1027 1024" version="1.1" xmlns="http://www.w3.org/2000/svg" p-id="2838" xmlns:xlink="http://www.w3.org/1999/xlink" width="200.5859375" height="200"><defs><style type="text/css"></style></defs><path d="M209.430747 512.058175C209.430747 473.499648 240.682468 442.247926 279.240995 442.247926 317.799523 442.247926 349.051244 473.499648 349.051244 512.058175 349.051244 550.616703 317.799523 581.868424 279.240995 581.868424 240.682468 581.868424 209.430747 550.616703 209.430747 512.058175ZM442.131576 512.058175C442.131576 473.499648 473.383297 442.247926 511.941825 442.247926 550.500352 442.247926 581.752074 473.499648 581.752074 512.058175 581.752074 550.616703 550.500352 581.868424 511.941825 581.868424 473.383297 581.868424 442.131576 550.616703 442.131576 512.058175ZM744.642654 581.868424C706.084127 581.868424 674.832405 550.616703 674.832405 512.058175 674.832405 473.499648 706.084127 442.247926 744.642654 442.247926 783.201182 442.247926 814.452903 473.499648 814.452903 512.058175 814.452903 550.616703 783.201182 581.868424 744.642654 581.868424ZM979.973003 468.6362C954.259561 468.6362 933.432837 447.786206 933.432837 422.096035L933.013976 418.0005 920.029269 418.0005C877.561368 231.234814 710.807954 91.707397 511.197182 91.707397 279.450426 91.707397 91.591046 279.566777 91.591046 511.313533 91.591046 743.037019 279.450426 930.919668 511.197182 930.919668 693.983684 930.919668 849.055516 813.824611 906.579161 650.701329L909.743893 650.701329 909.720623 650.468629C909.720623 624.755187 930.570617 603.928463 956.260789 603.928463 981.97423 603.928463 1002.800954 624.755187 1002.800954 650.468629L1002.824225 650.701329 1004.33678 650.701329C1004.010999 651.911374 1003.522327 653.074878 1003.173276 654.261652L1003.243086 654.796864C1003.243086 665.128781 999.752574 674.599705 994.028133 682.325372 923.799023 881.214771 734.822679 1024 511.872015 1024 229.117237 1024-0.11635 794.766413-0.11635 511.988365-0.11635 229.210317 229.117237 0 511.872015 0 748.761459 0 947.534507 161.052244 1005.942416 379.511783 1018.089399 387.912283 1026.071037 401.897603 1026.071037 417.767799L1026.513169 422.096035C1026.513169 447.786206 1005.663175 468.6362 979.973003 468.6362Z" p-id="2839" fill="#ffffff"></path></svg>